<?xml version="1.0" encoding="UTF-8"?> <svg xmlns="http://www.w3.org/2000/svg" viewBox="0 0 90 120" fill="none"><g clip-path="url(#clip0_392_28)"><path fill-rule="evenodd" clip-rule="evenodd" d="M65.20225 27.44675C66.098 28.17975 66.94525 28.9535 67.76025 29.768C70.75275 32.77425 73.1285 36.3465 74.75125 40.2805C76.37425 44.21475 77.21225 48.433 77.21775 52.6945V70.40875C77.21775 78.08075 72.79575 85.64675 67.841 91.185C61.88675 97.791 54.42 102.82425 46.0935 105.845L45.004 106.236L43.87425 105.8125C35.55 102.79175 28.08575 97.75825 22.13485 91.1525C17.2447 85.64675 12.79835 78.08075 12.790275 70.40875V52.6945C12.790875 48.42625 13.62665 44.20025 15.249625 40.259C16.8726 36.3175 19.25085 32.7385 22.247825 29.72725C23.0548 28.91275 23.910175 28.139 24.797825 27.406C38.00775 15.6455 49.6925 16.712425 65.20225 27.44675Z" fill="white"></path><path fill-rule="evenodd" clip-rule="evenodd" d="M45.004 102.67675C61.19975 96.91875 73.998 82.1365 73.9255 70.4085V52.6945C73.9895 48.81975 73.28875 44.97075 71.864 41.372C70.439 37.7735 68.31875 34.497 65.62625 31.734C62.934 28.971 59.7235 26.7765 56.18225 25.2785C52.641 23.7805 48.83975 23.009025 45 23.009025C41.16025 23.009025 37.359 23.7805 33.81775 25.2785C30.2765 26.7765 27.066 28.971 24.373675 31.734C21.68135 34.497 19.56095 37.7735 18.1361 41.372C16.71125 44.97075 16.010475 48.81975 16.0746 52.6945V70.4085C16.010025 82.1365 28.8085 96.91875 45.004 102.67675Z" fill="#7659A2"></path><path fill-rule="evenodd" clip-rule="evenodd" d="M45.004 101.1375C52.4065 98.37825 59.047 93.871 64.371 87.9925C69.45475 82.2915 72.56175 75.97125 72.52925 70.40875V52.6945C72.52925 45.3375 69.63375 38.28175 64.47925 33.0795C59.32475 27.87725 52.33375 24.954625 45.04425 24.954625C37.755 24.954625 30.764 27.87725 25.6095 33.0795C20.455125 38.28175 17.5594 45.3375 17.5594 52.6945V70.40875C17.5594 75.97125 20.6339 82.324 25.70975 87.9925C31.03425 93.87025 37.67475 98.3775 45.07675 101.1375H45.004ZM66.469 89.93075C60.71925 96.29075 53.51675 101.136 45.48825 104.04525L45.012 104.21625L44.536 104.04525C36.50625 101.138 29.30325 96.2925 23.555075 89.93075C18.011275 83.74925 14.622075 76.69625 14.67855 70.38425V52.6945C15.038625 44.81925 18.391725 37.387 24.04095 31.94225C29.69025 26.49775 37.201 23.459775 45.012 23.459775C52.82325 23.459775 60.334 26.49775 65.98325 31.94225C71.6325 37.387 74.9855 44.81925 75.34575 52.6945V70.40875C75.394 76.69625 72.00475 83.74925 66.469 89.93075Z" fill="#1D1D1B"></path><path fill-rule="evenodd" clip-rule="evenodd" d="M90 51.6845V70.41675C90 80.56475 85.45675 90.11 78.7025 98.10775C70.904 107.1885 60.9505 114.124 49.77325 118.26525L45.004 119.95925L40.22675 118.26525C29.052 114.12375 19.101075 107.18825 11.305475 98.10775C4.54315 90.10175 0.00805665 80.5565 0.00805665 70.41675V51.6845H2.880825V70.41675C2.880825 79.80725 7.141575 88.71725 13.48425 96.2265C20.946 104.9385 30.4785 111.59425 41.187 115.5695L45.004 116.9295L48.821 115.5695C59.52475 111.6055 69.05475 104.96075 76.51575 96.259C82.8585 88.74975 87.12725 79.83975 87.12725 70.44925V51.71725L90 51.6845Z" fill="#00A5DF"></path><path fill-rule="evenodd" clip-rule="evenodd" d="M45.004 102.67675C61.19975 96.91875 73.998 82.1365 73.9255 70.4085V52.6945C73.9895 48.81975 73.28875 44.97075 71.864 41.372C70.439 37.7735 68.31875 34.497 65.62625 31.734C62.934 28.971 59.7235 26.7765 56.18225 25.2785C52.641 23.7805 48.83975 23.009025 45 23.009025C41.16025 23.009025 37.359 23.7805 33.81775 25.2785C30.2765 26.7765 27.066 28.971 24.373675 31.734C21.68135 34.497 19.56095 37.7735 18.1361 41.372C16.71125 44.97075 16.010475 48.81975 16.0746 52.6945V70.4085C16.010025 82.1365 28.8085 96.91875 45.004 102.67675Z" fill="#745BA3"></path><path fill-rule="evenodd" clip-rule="evenodd" d="M45.004 101.1375C52.4065 98.37825 59.047 93.871 64.371 87.9925C69.45475 82.2915 72.56175 75.97125 72.52925 70.40875V52.6945C72.52925 45.3375 69.63375 38.28175 64.47925 33.0795C59.32475 27.87725 52.33375 24.954625 45.04425 24.954625C37.755 24.954625 30.764 27.87725 25.6095 33.0795C20.455125 38.28175 17.5594 45.3375 17.5594 52.6945V70.40875C17.5594 75.97125 20.6339 82.324 25.70975 87.9925C31.03425 93.87025 37.67475 98.3775 45.07675 101.1375H45.004ZM66.469 89.93075C60.71925 96.29075 53.51675 101.136 45.48825 104.04525L45.012 104.21625L44.536 104.04525C36.50625 101.138 29.30325 96.2925 23.555075 89.93075C18.011275 83.74925 14.622075 76.69625 14.67855 70.38425V52.6945C15.038625 44.81925 18.391725 37.387 24.04095 31.94225C29.69025 26.49775 37.201 23.459775 45.012 23.459775C52.82325 23.459775 60.334 26.49775 65.98325 31.94225C71.6325 37.387 74.9855 44.81925 75.34575 52.6945V70.40875C75.394 76.69625 72.00475 83.74925 66.469 89.93075Z" fill="#1D1D1B"></path><path fill-rule="evenodd" clip-rule="evenodd" d="M33.6905 87.577C33.86 87.463 34.0295 87.357 34.199 87.235C34.71525 86.8765 35.22375 86.502 35.716 86.11925L35.80475 86.0865C36.28075 85.712 36.74075 85.321 37.20075 84.922L37.65275 84.5065C37.89475 84.28675 38.12075 84.075 38.35475 83.84675L38.3145 83.78975C38.0885 83.45325 37.8625 83.103 37.6365 82.73925C37.58625 82.66625 37.54025 82.59 37.4995 82.51125C37.25725 82.1365 37.02325 81.7455 36.78925 81.33025C36.184 80.2795 35.62725 79.21275 35.17525 78.154C33.88525 75.48075 32.87125 72.6805 32.14925 69.79775C31.97175 69.08925 31.8185 68.3805 31.68125 67.68025C31.68125 67.51725 31.61675 67.3545 31.5925 67.1915C31.56825 67.0285 31.528 66.89025 31.50375 66.7355C29.41525 69.59875 28.28475 73.059 28.27575 76.6145C28.2615 80.90575 29.899 85.035 32.84325 88.13075L33.6905 87.577Z" fill="#20A6DF"></path><path fill-rule="evenodd" clip-rule="evenodd" d="M60.0135 80.915L59.47275 80.638C57.825 79.85075 56.11675 79.19975 54.36475 78.6915C53.945 79.563 53.477 80.44275 52.98475 81.306C52.34725 82.4135 51.726 83.40725 51.07225 84.34375C49.404 86.78025 47.49225 89.03725 45.36725 91.07925C45.04425 91.405 44.7055 91.72275 44.3665 92.03225L44.05175 92.31725C43.7935 92.5535 43.51925 92.7815 43.24475 93.01775L43.043 93.19675C44.79125 93.38625 46.558 93.301 48.28025 92.94425C51.20575 92.31975 53.90975 90.90925 56.10725 88.86225C58.3045 86.81525 59.91325 84.2075 60.764 81.314L60.0135 80.915Z" fill="white"></path><path fill-rule="evenodd" clip-rule="evenodd" d="M41.03375 61.3275C41.03375 61.53125 41.03375 61.72675 41.07425 61.922C41.12275 62.5575 41.18725 63.1845 41.276 63.81175C41.276 63.81175 41.276 63.87675 41.276 63.90925C41.36475 64.504 41.4615 65.0985 41.5745 65.693C41.615 65.8965 41.66325 66.10025 41.70375 66.30375C41.744 66.5075 41.84075 66.92275 41.9135 67.22425H42.7205H43.2045C43.73725 67.22425 44.26175 67.22425 44.8185 67.22425C46.037 67.22425 47.23925 67.22425 48.44175 67.3625C51.3745 67.61275 54.27525 68.1585 57.1005 68.9915C57.5765 69.13 58.0285 69.2765 58.48025 69.42325L58.88375 69.5615C59.1905 69.6675 59.50525 69.77325 59.80375 69.88725L60.04575 69.96875C58.48625 66.3755 55.723 63.45125 52.24075 61.70875C48.7585 59.96625 44.77925 59.517 41.0015 60.43975C41.0015 60.65975 41.01775 60.99375 41.03375 61.3275Z" fill="#EC6907"></path><path fill-rule="evenodd" clip-rule="evenodd" d="M41.849 82.161C41.6795 82.3565 41.526 82.56 41.35675 82.7555C40.8455 83.3365 40.3075 83.8985 39.74275 84.4415C39.71925 84.461 39.6975 84.48275 39.67825 84.5065C39.21825 84.96275 38.75025 85.39425 38.274 85.826C38.11275 85.9725 37.93525 86.111 37.76575 86.2575C37.42675 86.55075 37.08775 86.836 36.73275 87.121L36.1195 87.58525C35.79675 87.84025 35.46575 88.08475 35.127 88.31825C34.909 88.473 34.69125 88.62775 34.46525 88.77425L33.9165 89.149C35.97025 90.96925 38.437 92.2505 41.0985 92.879L41.48575 92.5615L41.865 92.252C42.05075 92.10525 42.22 91.9505 42.39775 91.79575L42.7205 91.519C42.92225 91.348 43.10775 91.17675 43.29325 91.00575L43.5435 90.786C43.80975 90.5335 44.068 90.289 44.3505 90.03675C46.40575 88.05825 48.25775 85.87525 49.87825 83.521C50.5075 82.617 51.10475 81.656 51.726 80.581C51.98425 80.12475 52.2345 79.66875 52.4765 79.21275C52.54925 79.07425 52.61375 78.93575 52.68625 78.8055C52.759 78.67525 52.83975 78.47975 52.92025 78.325L52.1135 78.12125L51.363 77.9585C50.87075 77.86075 50.37025 77.77925 49.87 77.69775L49.281 77.60825C48.587 77.51875 47.885 77.44525 47.183 77.3965H46.81175C46.30325 77.3965 45.795 77.3475 45.2785 77.3395C45.09275 77.66525 44.883 77.9665 44.6895 78.28425L44.16475 79.09875C43.90675 79.4815 43.62425 79.856 43.358 80.23075C43.0915 80.6055 43.00275 80.73575 42.81725 80.98C42.5025 81.379 42.17175 81.77 41.849 82.161Z" fill="#EC6907"></path><path fill-rule="evenodd" clip-rule="evenodd" d="M60.28775 71.508L59.8845 71.35325L59.263 71.11725L58.8595 70.97875C58.6255 70.889 58.3835 70.81575 58.14125 70.73425L57.8025 70.61225C57.442 70.48725 57.07075 70.37325 56.68875 70.27025C53.95825 69.4695 51.15475 68.9485 48.32075 68.7145C47.788 68.66575 47.2555 68.64125 46.70675 68.61675H46.1015H45.08475H44.407H43.4385H42.76875H42.30075L42.54275 69.43125L42.785 70.1805C42.9545 70.661 43.132 71.1415 43.3175 71.614C43.39025 71.80125 43.45475 71.9885 43.5355 72.176C43.80975 72.83575 44.09225 73.479 44.407 74.1225L44.5765 74.44C44.80225 74.90425 45.0445 75.3605 45.30275 75.8165C45.66575 75.8165 46.029 75.8165 46.40025 75.86525C46.77125 75.91425 47.05375 75.86525 47.3845 75.86525C47.8445 75.86525 48.2965 75.955 48.7485 76.00375C49.063 76.00375 49.36975 76.06075 49.6765 76.10975C50.1685 76.17475 50.66075 76.2725 51.153 76.36225C51.4195 76.411 51.67775 76.4435 51.96 76.50075C52.7025 76.65525 53.44475 76.8345 54.17925 77.03825C54.81675 77.20925 55.44625 77.40475 56.0755 77.6165L56.68075 77.82825L57.94775 78.3005L58.666 78.61C59.04525 78.76475 59.41625 78.92775 59.7875 79.10675C60.15875 79.286 60.28775 79.35125 60.538 79.47325L61.13525 79.7665C61.34125 78.693 61.4465 77.60225 61.45 76.50875C61.44875 74.8525 61.204 73.20575 60.72375 71.622L60.28775 71.508Z" fill="#20A6DF"></path><path fill-rule="evenodd" clip-rule="evenodd" d="M33.061 67.19975C33.19825 67.93275 33.35975 68.66575 33.54525 69.415C34.22575 72.20475 35.1855 74.917 36.41 77.5105C36.886 78.52875 37.42675 79.55475 38.02375 80.573C38.23375 80.93125 38.4355 81.27325 38.63725 81.599L38.7905 81.85975C38.976 82.153 39.16175 82.446 39.34725 82.723V82.772L39.93625 82.14475L40.44475 81.57475C40.7755 81.18375 41.0985 80.76025 41.413 80.3855L41.78425 79.92125C42.21475 79.3785 42.62625 78.80025 43.019 78.1865L43.2125 77.869C43.495 77.43725 43.76125 77.00575 44.0195 76.56575C43.842 76.24 43.68075 75.90625 43.51125 75.57225C43.34175 75.23825 43.22075 74.994 43.06725 74.6845C42.914 74.375 42.688 73.87 42.5025 73.414C42.37325 73.129 42.24425 72.852 42.12325 72.5995C41.9295 72.12725 41.76 71.6465 41.5905 71.166C41.50175 70.92175 41.405 70.6775 41.31625 70.425C41.07425 69.692 40.85625 68.95075 40.6545 68.20975C40.45275 67.4685 40.33975 66.9065 40.21075 66.24675C40.21075 66.027 40.138 65.807 40.09775 65.59525C40.017 65.14725 39.93625 64.7075 39.87175 64.26775L39.775 63.45325C39.7265 63.046 39.68625 62.63875 39.64575 62.23175C39.64575 61.95475 39.6055 61.67775 39.58925 61.41725C39.57325 61.1565 39.58925 60.9775 39.549 60.7575C36.946 61.6505 34.60325 63.18125 32.73025 65.2125C32.78675 65.628 32.85925 66.027 32.932 66.46675C32.9805 66.711 33.01275 66.9555 33.061 67.19975Z" fill="white"></path><path fill-rule="evenodd" clip-rule="evenodd" d="M61.9825 70.9135C60.542 66.46825 57.457 62.7555 53.371 60.54925C49.28475 58.343 44.51275 57.81375 40.04925 59.0715C36.723 59.9995 33.733 61.87725 31.439 64.4795C29.78275 66.33375 28.53425 68.521 27.7755 70.89725C27.17075 72.73575 26.8655 74.661 26.87175 76.59825C26.86725 79.014 27.34275 81.406 28.27 83.633C29.19725 85.86 30.5575 87.87675 32.27025 89.56425C34.71 91.997 37.79125 93.6705 41.14675 94.38575C43.5885 94.88525 46.10475 94.88525 48.5465 94.38575C51.82625 93.6795 54.84675 92.066 57.2695 89.72575C59.69225 87.3855 61.422 84.41075 62.26475 81.13475C62.64 79.65225 62.83 78.12825 62.82975 76.59825C62.835 74.66175 62.5325 72.737 61.934 70.89725L61.9825 70.9135ZM48.264 92.94425C46.54175 93.30075 44.77525 93.386 43.027 93.19675L43.22875 93.0175C43.495 92.78125 43.76925 92.55325 44.03575 92.317L44.3505 92.032C44.68925 91.7225 45.02825 91.40475 45.351 91.079C47.47625 89.037 49.388 86.78 51.05625 84.34375C51.70975 83.407 52.33125 82.4135 52.96875 81.30575C53.461 80.4425 53.929 79.563 54.3485 78.6915C56.10075 79.19975 57.809 79.8505 59.4565 80.638L59.99725 80.91475L60.75575 81.314C59.90525 84.20725 58.29625 86.815 56.099 88.86225C53.90175 90.90925 51.19775 92.3195 48.27225 92.94425H48.264ZM28.31625 76.582C28.325 73.0265 29.4555 69.56625 31.544 66.70275C31.544 66.8575 31.6005 67.01225 31.63275 67.159C31.665 67.3055 31.68925 67.48475 31.7215 67.6475C31.85875 68.348 32.012 69.0565 32.1895 69.76525C32.89025 72.64825 33.8825 75.45125 35.151 78.1295C35.64325 79.18825 36.2 80.25525 36.765 81.30575C36.999 81.72125 37.233 82.12025 37.475 82.48675C37.516 82.5655 37.56175 82.64175 37.61225 82.71475C37.83825 83.0785 38.06425 83.42875 38.29 83.7655L38.3305 83.8225C38.0965 84.0505 37.8705 84.26225 37.6285 84.482L37.1765 84.8975C36.7165 85.2965 36.2565 85.712 35.7805 86.06225L35.716 86.11925C35.22375 86.502 34.71525 86.8765 34.19875 87.235C34.0295 87.357 33.86 87.463 33.6905 87.577L32.8835 88.09825C29.93925 85.00225 28.30175 80.87325 28.31625 76.582ZM49.297 60.46425C51.66325 61.12575 53.853 62.31225 55.707 63.93675C57.561 65.56125 59.03225 67.58325 60.0135 69.85475L59.77125 69.77325C59.47275 69.65925 59.158 69.5535 58.8515 69.4475L58.448 69.309C57.996 69.1625 57.54425 69.01575 57.068 68.8775C54.24275 68.0445 51.34225 67.49875 48.40925 67.2485C47.215 67.15075 45.9885 67.102 44.78625 67.11C44.2455 67.11 43.721 67.11 43.17225 67.11H42.688H41.881C41.8085 66.80875 41.73575 66.49925 41.67125 66.18975C41.60675 65.88025 41.5825 65.7825 41.54225 65.579C41.42925 64.98425 41.33225 64.38975 41.2435 63.79525C41.2435 63.79525 41.2435 63.73 41.2435 63.6975C41.15475 63.0705 41.09025 62.44325 41.04175 61.808C41.04175 61.6125 41.04175 61.417 41.0015 61.2135C41.0015 60.8795 41.0015 60.54575 41.0015 60.21175C43.73975 59.553 46.598 59.60075 49.31325 60.35025L49.297 60.46425ZM39.549 60.74925C39.549 60.96925 39.549 61.189 39.58925 61.409C39.62975 61.62875 39.58925 61.96275 39.64575 62.2235C39.64575 62.6305 39.7265 63.03775 39.775 63.445L39.87175 64.2595C39.93625 64.69925 40.017 65.139 40.09775 65.587C40.138 65.79875 40.17025 66.01875 40.21075 66.2385C40.33975 66.89825 40.493 67.54975 40.6545 68.2015C40.816 68.853 41.07425 69.68375 41.31625 70.41675C41.405 70.66925 41.50175 70.9135 41.5905 71.15775C41.76 71.63825 41.9295 72.11875 42.12325 72.59125C42.24425 72.8845 42.37325 73.16125 42.5025 73.40575C42.688 73.82925 42.8655 74.26075 43.06725 74.67625C43.269 75.0915 43.366 75.2625 43.51925 75.54775C43.6725 75.83275 43.85 76.2155 44.0275 76.54125C43.76925 76.981 43.503 77.41275 43.22075 77.8445L43.06725 78.1865C42.66925 78.78375 42.25775 79.362 41.83275 79.92125L41.4535 80.3855C41.13875 80.7845 40.816 81.2 40.485 81.5745L39.97675 82.14475L39.3875 82.77175V82.723C39.202 82.446 39.0165 82.15275 38.83075 81.8595L38.6775 81.599C38.47575 81.27325 38.274 80.93125 38.06425 80.57275C37.48325 79.55475 36.9425 78.5285 36.45025 77.5105C35.22575 74.917 34.266 72.2045 33.5855 69.415C33.4 68.66575 33.2385 67.93275 33.1015 67.19975C33.053 66.95525 33.02075 66.711 32.98025 66.4585C32.90775 66.04325 32.835 65.644 32.7785 65.20425C34.6515 63.173 36.9945 61.64225 39.5975 60.74925H39.549ZM44.15675 79.0905L44.68125 78.276C44.875 77.9585 45.08475 77.657 45.27025 77.33125C45.78675 77.33125 46.29525 77.33125 46.8035 77.38825H47.17475C47.87675 77.43725 48.57875 77.5105 49.27275 77.6L49.862 77.68975C50.36225 77.771 50.8625 77.8525 51.35475 77.95025L52.10525 78.11325L52.91225 78.31675C52.8315 78.4715 52.759 78.6345 52.67825 78.79725C52.5975 78.96025 52.541 79.066 52.46825 79.2045C52.22625 79.6605 51.97625 80.11675 51.718 80.57275C51.0965 81.64775 50.4995 82.609 49.87 83.513C48.2495 85.867 46.3975 88.05 44.34225 90.0285C44.09225 90.281 43.834 90.52525 43.53525 90.77775L43.28525 90.99775C43.0995 91.16875 42.914 91.33975 42.71225 91.51075L42.3895 91.78775C42.212 91.9425 42.0425 92.09725 41.857 92.24375L41.4775 92.55325L41.09025 92.87075C38.42875 92.24225 35.962 90.961 33.90825 89.14075L34.457 88.766C34.683 88.6195 34.901 88.46475 35.11875 88.31C35.33675 88.15525 35.7885 87.8295 36.11125 87.577L36.7245 87.11275C37.07975 86.82775 37.4185 86.54275 37.7575 86.2495C37.927 86.10275 38.1045 85.9645 38.266 85.81775C38.742 85.38625 39.21 84.9545 39.67 84.4985C39.6895 84.47475 39.711 84.45275 39.7345 84.43325C40.2725 83.89025 40.8105 83.32825 41.3485 82.74725C41.518 82.552 41.67125 82.34825 41.84075 82.15275C42.1635 81.76175 42.49425 81.33825 42.809 80.96375C42.99475 80.7195 43.16425 80.467 43.34975 80.2145C43.53525 79.962 43.8985 79.46525 44.15675 79.08225V79.0905ZM61.10275 79.848L60.53 79.571C60.27975 79.44875 60.0295 79.3185 59.7795 79.2045C59.52925 79.0905 59.037 78.8625 58.65775 78.70775L57.9395 78.39825L56.6725 77.94225L56.0675 77.7305C55.438 77.51875 54.8085 77.32325 54.171 77.15225C53.43675 76.9485 52.69425 76.76925 51.952 76.6145C51.69375 76.5575 51.4355 76.525 51.145 76.47625C50.65275 76.3865 50.1605 76.28875 49.66825 76.22375C49.3615 76.17475 49.055 76.15025 48.74025 76.11775C48.28825 76.069 47.8365 76.012 47.3765 75.97925C47.0455 75.97925 46.71475 75.97925 46.392 75.97925C46.06925 75.97925 45.65775 75.9305 45.2945 75.9305C45.03625 75.47425 44.79425 75.01825 44.56825 74.554L44.39875 74.2365C44.084 73.593 43.80175 72.9495 43.52725 72.29C43.4465 72.1025 43.382 71.91525 43.3095 71.728C43.12375 71.2555 42.94625 70.775 42.77675 70.2945L42.53475 69.54525L42.29275 68.73075H42.76075H43.4305H44.39875H45.07675H46.0935H46.6985C47.23925 68.73075 47.772 68.77975 48.3125 68.8285C51.1465 69.06225 53.95 69.5835 56.68075 70.384C57.05725 70.48725 57.4285 70.60125 57.79425 70.72625L58.13325 70.84025C58.37525 70.92175 58.6175 70.995 58.8515 71.0845L59.255 71.223L59.87625 71.45925L60.27975 71.614L60.7075 71.785C61.18775 73.3685 61.4325 75.0155 61.43375 76.6715C61.428 77.73775 61.32525 78.80075 61.127 79.848H61.10275Z" fill="#1D1D1B"></path><path fill-rule="evenodd" clip-rule="evenodd" d="M34.6265 85.6875L33.60175 86.39625C33.52625 86.4455 33.44175 86.4795 33.353 86.4955C33.2645 86.51175 33.1735 86.50975 33.08575 86.49C32.99775 86.4705 32.91475 86.43325 32.84125 86.38075C32.76775 86.32825 32.70525 86.2615 32.6575 86.1845C31.197 83.91725 30.3025 81.32675 30.05125 78.6345C30.05125 78.6345 30.93875 83.399 33.1015 85.549C33.47275 85.9155 34.19075 85.4595 34.6265 85.6875Z" fill="#1B7BA4"></path><path fill-rule="evenodd" clip-rule="evenodd" d="M41.0985 79.86425L39.40375 81.44425C39.40375 81.44425 35.369 75.2465 34.78 69.863C34.78 69.863 36.55525 77.07075 39.51675 79.8155C40.02525 80.28775 40.50925 79.571 41.0985 79.86425Z" fill="#BDBCBC"></path><path d="M55.438 79.0255L54.36475 78.6915C53.94525 79.563 53.47725 80.44275 52.985 81.306C52.3715 82.37275 51.7665 83.342 51.137 84.25425C52.89325 82.8095 54.354 81.0335 55.438 79.0255Z" fill="white"></path><path d="M47.65075 86.46925C48.45775 85.5165 49.184 84.539 49.886 83.513C50.588 82.48675 51.11275 81.64775 51.734 80.57275C51.99225 80.11675 52.24225 79.6605 52.4845 79.2045C52.557 79.066 52.62175 78.9275 52.69425 78.79725C52.767 78.667 52.8475 78.4715 52.92825 78.31675L52.12125 78.11325L51.37075 77.95025C50.8785 77.8525 50.37825 77.771 49.878 77.68975L49.289 77.6C48.595 77.5105 47.89275 77.43725 47.19075 77.38825H46.8195C46.31125 77.38825 45.80275 77.3395 45.2865 77.33125C45.10075 77.657 44.891 77.9585 44.69725 78.276L44.17275 79.0905C43.9145 79.47325 43.63225 79.848 43.36575 80.2225C43.0995 80.59725 43.01075 80.7275 42.82525 80.97175C42.5105 81.379 42.1795 81.78625 41.85675 82.161C41.68725 82.3565 41.534 82.56 41.3645 82.7555C40.8535 83.3365 40.3155 83.8985 39.75075 84.4415C39.72725 84.461 39.7055 84.48275 39.686 84.5065C39.22625 84.96275 38.758 85.39425 38.282 85.826C38.1205 85.9725 37.943 86.111 37.7735 86.2575C37.43475 86.55075 37.09575 86.83575 36.74075 87.121L36.1275 87.58525L36.06275 87.634C39.9325 88.60325 44.01525 88.19175 47.6185 86.46925H47.65075Z" fill="#EC6907"></path><path d="M57.52 70.53075L56.713 70.27825C53.9825 69.47775 51.179 68.9565 48.34475 68.72275C47.81225 68.67375 47.27975 68.6495 46.731 68.625H46.12575H45.109H44.431H43.46275H42.793H42.325L42.567 69.4395L42.809 70.18875C42.9785 70.66925 43.156 71.14975 43.34175 71.62225C43.41425 71.8095 43.479 71.99675 43.5595 72.184C43.834 72.84375 44.1165 73.48725 44.431 74.13075L44.6005 74.44825C44.8265 74.9125 45.0685 75.3685 45.32675 75.82475C45.69 75.82475 46.053 75.82475 46.42425 75.8735C46.7955 75.9225 47.078 75.8735 47.40875 75.8735C47.86875 75.8735 48.32075 75.96325 48.7725 76.012C49.08725 76.012 49.394 76.069 49.7005 76.118C50.19275 76.183 50.685 76.28075 51.17725 76.37025C51.4435 76.41925 51.70175 76.45175 51.98425 76.50875C52.72675 76.6635 53.469 76.84275 54.20325 77.04625C54.84075 77.21725 55.47025 77.41275 56.09975 77.6245C57.058 75.419 57.55275 73.03675 57.55225 70.6285C57.528 70.61225 57.52 70.61225 57.52 70.53075Z" fill="#20A6DF"></path><path d="M45.359 91.07925C45.03625 91.405 44.69725 91.7225 44.3585 92.032L44.04375 92.317C43.7855 92.55325 43.51125 92.78125 43.23675 93.0175L43.035 93.19675C44.78325 93.386 46.55 93.301 48.27225 92.94425C51.19775 92.3195 53.90175 90.90925 56.099 88.86225C58.29625 86.815 59.90525 84.20725 60.75575 81.314L59.99725 80.915L59.4565 80.638C58.14725 80.00925 56.7995 79.46525 55.42175 79.009C54.34425 81.0215 52.889 82.803 51.137 84.254C51.1135 84.2825 51.09175 84.3125 51.07225 84.34375C49.4015 86.7805 47.487 89.0375 45.359 91.07925Z" fill="white"></path><path d="M45.359 91.07925C45.03625 91.405 44.69725 91.7225 44.3585 92.032L44.04375 92.317C43.7855 92.55325 43.51125 92.78125 43.23675 93.0175L43.035 93.19675C44.78325 93.386 46.55 93.301 48.27225 92.94425C51.19775 92.3195 53.90175 90.90925 56.099 88.86225C58.29625 86.815 59.90525 84.20725 60.75575 81.314L59.99725 80.915L59.4565 80.638C58.14725 80.00925 56.7995 79.46525 55.42175 79.009C54.34425 81.0215 52.889 82.803 51.137 84.254C51.1135 84.2825 51.09175 84.3125 51.07225 84.34375C49.4015 86.7805 47.487 89.0375 45.359 91.07925Z" fill="#BDBCBC"></path><path d="M34.5055 88.77425L33.95675 89.149C36.0105 90.96925 38.47725 92.2505 41.13875 92.879L41.526 92.5615L41.90525 92.252C42.091 92.10525 42.2605 91.9505 42.438 91.79575L42.76075 91.519L43.33375 91.00575L43.58375 90.786C43.85 90.5335 44.10825 90.28925 44.39075 90.03675C45.556 88.91325 46.6555 87.722 47.68325 86.4695C44.07975 88.19175 39.99725 88.60325 36.1275 87.634C35.82075 87.87025 35.51425 88.09825 35.1995 88.31825C34.88475 88.538 34.7315 88.62775 34.5055 88.77425Z" fill="#EC6907"></path><path d="M34.5055 88.77425L33.95675 89.149C36.0105 90.96925 38.47725 92.2505 41.13875 92.879L41.526 92.5615L41.90525 92.252C42.091 92.10525 42.2605 91.9505 42.438 91.79575L42.76075 91.519L43.33375 91.00575L43.58375 90.786C43.85 90.5335 44.10825 90.28925 44.39075 90.03675C45.556 88.91325 46.6555 87.722 47.68325 86.4695C44.07975 88.19175 39.99725 88.60325 36.1275 87.634C35.82075 87.87025 35.51425 88.09825 35.1995 88.31825C34.88475 88.538 34.7315 88.62775 34.5055 88.77425Z" fill="#AC4F02"></path><path d="M57.9395 78.382L58.65775 78.6915C59.037 78.84625 59.40825 79.00925 59.7795 79.1885C60.1505 79.3675 60.27975 79.43275 60.52975 79.555L61.127 79.848C61.333 78.7745 61.4385 77.68375 61.44175 76.59025C61.4405 74.934 61.19575 73.28725 60.7155 71.70375L60.28775 71.5325L59.88425 71.37775L59.263 71.14175L58.8595 71.00325C58.6255 70.91375 58.38325 70.84025 58.14125 70.759L57.80225 70.61225L57.52 70.52275C57.52 70.57975 57.52 70.63675 57.52 70.69375C57.52025 73.102 57.02575 75.48425 56.0675 77.68975L56.6645 77.9015L57.9395 78.382Z" fill="#20A6DF"></path><path d="M57.9395 78.382L58.65775 78.6915C59.037 78.84625 59.40825 79.00925 59.7795 79.1885C60.1505 79.3675 60.27975 79.43275 60.52975 79.555L61.127 79.848C61.333 78.7745 61.4385 77.68375 61.44175 76.59025C61.4405 74.934 61.19575 73.28725 60.7155 71.70375L60.28775 71.5325L59.88425 71.37775L59.263 71.14175L58.8595 71.00325C58.6255 70.91375 58.38325 70.84025 58.14125 70.759L57.80225 70.61225L57.52 70.52275C57.52 70.57975 57.52 70.63675 57.52 70.69375C57.52025 73.102 57.02575 75.48425 56.0675 77.68975L56.6645 77.9015L57.9395 78.382Z" fill="#1B7BA4"></path><path fill-rule="evenodd" clip-rule="evenodd" d="M57.67325 80.695C58.41375 80.80825 59.13725 81.0135 59.828 81.306C59.275 83.72225 57.8325 85.83575 55.793 87.21875C55.793 87.21875 58.5125 84.7755 58.59325 81.7375C58.64975 81.2 58.19775 80.8825 57.67325 80.695Z" fill="#929292"></path><path fill-rule="evenodd" clip-rule="evenodd" d="M44.2375 71.85L43.51925 69.63475C43.51925 69.63475 49.975 68.64925 55.76075 70.7425C55.76075 70.7425 48.49825 68.804 44.6975 70.27C44.06 70.5225 44.73775 71.4265 44.2375 71.85Z" fill="#1B7BA4"></path><g style="mix-blend-mode:multiply" opacity="0.48"><path d="M33.6905 87.577C33.86 87.463 34.02925 87.357 34.19875 87.235L34.36825 87.11275C33.087 86.6475 31.86525 86.0295 30.729 85.27225C31.34375 86.295 32.06625 87.248 32.8835 88.1145L33.6905 87.577Z" fill="#838083"></path></g><path fill-rule="evenodd" clip-rule="evenodd" d="M49.4745 78.56125C50.27325 78.56125 51.0665 78.69325 51.82275 78.952C51.82275 78.952 49.402 85.1175 44.78625 88.23675C44.78625 88.23675 49.6925 83.855 50.37025 79.7665C50.49125 79.066 50.0395 78.70775 49.4745 78.56125Z" fill="#AC4F02"></path><path fill-rule="evenodd" clip-rule="evenodd" d="M41.83275 63.217L41.45325 61.0425C44.5695 60.3985 47.802 60.6525 50.78175 61.7755C50.78175 61.7755 45.5365 60.35025 42.454 61.6045C41.96175 61.82425 42.26025 62.883 41.83275 63.217Z" fill="#AC4F02"></path><path fill-rule="evenodd" clip-rule="evenodd" d="M4.107425 35.47725L0.7424 34.66275L0 37.9205L1.2911325 38.27075C2.4370125 38.58025 3.292375 38.93025 3.187475 39.476V39.647L4.8014 40.038L5.00315 39.14225L4.147775 38.9385L4.8256 35.982L5.680975 36.18575L5.8908 35.28975L4.276875 34.907L4.1397 35.4935L4.107425 35.47725ZM1.5735675 37.4155L0.97642 37.26075L1.3072725 35.82725L3.889525 36.43L3.453775 38.30325C2.9208 37.837 2.2697775 37.5295 1.5735675 37.4155ZM4.890175 33.22125L3.9783 32.85475L4.704575 31.00575L3.99445 30.7045L3.2601 32.55325L2.404735 32.21125L3.2117 30.11L2.47736 29.81675L1.2830625 32.83025L5.23715 34.41825L6.45565 31.3315L5.721325 31.0385L4.890175 33.22125ZM4.276875 25.81775L2.71945 29.2385L3.4457 29.5725L4.010575 28.32625L7.14965 29.768L7.553125 28.88025L4.446325 27.44675L5.0112 26.20075L4.276875 25.81775ZM9.58665 25.435C9.376975 25.7365 9.096425 25.9805 8.770175 26.1455C8.443925 26.31025 8.0822 26.39075 7.7175 26.37975C7.3528 26.36875 6.99655 26.26625 6.6807 26.082C6.364875 25.8975 6.09935 25.637 5.908 25.32325C5.716675 25.00975 5.605475 24.6532 5.584425 24.285575C5.563375 23.917925 5.63315 23.550775 5.78745 23.217075C5.941725 22.88335 6.17575 22.593575 6.468425 22.3737C6.761125 22.153825 7.10335 22.010775 7.46435 21.957375L7.6096 22.81255C7.407875 22.8376 7.214175 22.9076 7.0425 23.017475C6.87085 23.127325 6.725525 23.274325 6.61705 23.447825C6.513125 23.597275 6.441075 23.766875 6.40545 23.9459C6.369825 24.124925 6.371425 24.30945 6.4101 24.487825C6.448775 24.666175 6.523725 24.8345 6.6302 24.98215C6.73665 25.12975 6.872325 25.2535 7.0286 25.3455C7.176275 25.4515 7.344325 25.52525 7.52195 25.562C7.69955 25.5985 7.8828 25.59725 8.059875 25.55825C8.236975 25.519 8.404 25.443 8.5502 25.33475C8.6964 25.22675 8.81855 25.08875 8.908825 24.9301C9.0209 24.75765 9.092925 24.56185 9.119475 24.35735C9.146025 24.15285 9.126425 23.944925 9.062125 23.74915L9.8691 23.52925C9.9644 23.8496 9.986325 24.187625 9.9332 24.5178C9.880075 24.84795 9.7533 25.1615 9.56245 25.435H9.58665ZM12.50785 21.159225L13.2099 20.295925L10.59535 20.059725L9.820675 17.6734L9.1751 18.48785L9.836825 20.450675L9.40105 21.004475L8.05345 19.95385L7.448225 20.727575L10.789025 23.374525L11.386175 22.560075L10.03855 21.49315L10.458175 20.955625L12.4917 21.14295L12.50785 21.159225ZM15.6792 17.591975L14.75925 17.225475L13.3955 18.667025L13.7909 19.5792L13.096925 20.3122L11.329675 15.963075L11.99945 15.254525L16.437725 16.858975L15.71955 17.6164L15.6792 17.591975ZM13.072725 17.91775L12.3626 16.28885L13.9765 16.932275L13.04045 17.91775H13.072725ZM15.057825 12.34695C14.862825 12.4738 14.6972 12.6416 14.572275 12.8389C14.447325 13.0362 14.366 13.258375 14.333825 13.490275C14.301675 13.72215 14.319425 13.958325 14.385875 14.182675C14.452325 14.407025 14.565925 14.61425 14.7189 14.790275C14.900825 15.034875 15.157075 15.21265 15.448475 15.29645C15.7399 15.380275 16.050475 15.36555 16.332825 15.254525L16.437725 16.858975L17.2447 16.174825L17.075225 14.814725L17.753075 14.220175L18.495475 15.07535L19.2298 14.431925L16.437725 11.157875L15.049775 12.379525L15.057825 12.34695ZM15.606575 12.9415L16.236 12.387675L17.2447 13.6012L16.59105 14.1713C16.521675 14.279475 16.427825 14.3695 16.317275 14.43395C16.2067 14.4984 16.082575 14.53545 15.955075 14.54205C15.82755 14.548675 15.7003 14.52465 15.583775 14.471975C15.467275 14.4193 15.3648 14.33945 15.284775 14.239025C15.204775 14.1386 15.149525 14.02045 15.123575 13.894275C15.0976 13.768125 15.101675 13.637525 15.13545 13.51325C15.169225 13.388975 15.231725 13.274575 15.31785 13.179425C15.40395 13.084275 15.5112 13.0111 15.630775 12.965925L15.606575 12.9415ZM22.77235 9.22765C22.994425 9.142225 23.23925 9.1387 23.46365 9.217675C23.68805 9.29665 23.877625 9.45305 23.998925 9.6593C24.4024 10.286425 24.168375 10.986825 23.2646 11.581375L21.49735 12.78675L19.18945 9.178775L20.8518 8.087425C21.65875 7.549875 22.385 7.566175 22.764275 8.160725C22.8767 8.32615 22.936875 8.522075 22.936875 8.722675C22.936875 8.9233 22.8767 9.1192 22.764275 9.28465L22.77235 9.22765ZM20.407975 9.22765L20.972825 10.0991L21.73945 9.602275C22.0945 9.3661 22.19135 9.097325 22.00575 8.78785C21.82015 8.47835 21.5377 8.47835 21.198775 8.7064L20.432175 9.21135L20.407975 9.22765ZM22.828825 11.003125C23.2081 10.75065 23.313 10.473725 23.111275 10.188675C22.909525 9.903625 22.6271 9.8629 22.23975 10.115375L21.335975 10.709925L21.916975 11.6221L22.828825 11.02755V11.003125ZM27.2105 9.528975C27.74575 9.2849 28.16275 8.8363 28.37 8.28185C28.5775 7.727425 28.558 7.112575 28.31625 6.57255C28.07425 6.03255 27.62975 5.611625 27.0805 5.402375C26.53125 5.193125 25.922 5.212675 25.387 5.456775C25.122 5.577625 24.883225 5.749975 24.684275 5.96395C24.48535 6.177925 24.330125 6.429375 24.22745 6.7039C24.1248 6.978425 24.076725 7.270675 24.085975 7.56395C24.095225 7.85725 24.1616 8.1458 24.28135 8.4132C24.4011 8.680575 24.571875 8.92155 24.783875 9.122325C24.9959 9.3231 25.245 9.479775 25.517 9.583375C26.06625 9.792625 26.6755 9.773075 27.2105 9.528975ZM26.8635 8.71455C26.70275 8.794525 26.52725 8.8398 26.348 8.847475C26.16875 8.855175 25.99 8.825125 25.823 8.759225C25.656 8.693325 25.5045 8.59305 25.378 8.464775C25.2515 8.336475 25.15275 8.183 25.08825 8.014125C25.00325 7.852025 24.952175 7.6741 24.9379 7.4913C24.923625 7.3085 24.946575 7.1247 25.00525 6.951175C25.064 6.77765 25.1575 6.618125 25.2795 6.482375C25.40175 6.3466 25.55 6.237525 25.7155 6.161825C25.881 6.0861 26.06 6.045375 26.24175 6.042125C26.42325 6.038875 26.60375 6.0732 26.77175 6.14295C26.93975 6.2127 27.092 6.316425 27.21875 6.44775C27.3455 6.57905 27.4445 6.735175 27.50925 6.906475C27.5925 7.066525 27.64175 7.242275 27.654 7.4226C27.66625 7.602925 27.64125 7.78385 27.58075 7.9539C27.52 8.12395 27.42475 8.279375 27.3015 8.410325C27.178 8.541275 27.02875 8.644875 26.8635 8.71455ZM29.01025 3.990775L29.5105 5.660375C29.817 6.711 29.90575 7.354425 29.42975 7.5173C29.37375 7.52895 29.31625 7.52895 29.26025 7.5173L29.47 8.33175C29.632 8.3222 29.79175 8.2921 29.94625 8.242175C30.8985 7.916375 30.80975 6.922775 30.3175 5.302025L30.05925 4.487575L31.439 4.0152L32.577 7.30555L33.505 6.987925L32.125 2.9157L29.01025 3.990775ZM35.28825 5.7174L35.06225 4.75635L36.991 4.30025L36.8135 3.550975L34.89275 3.998925L34.683 3.094875L36.86175 2.581775L36.68425 1.8080625L33.55325 2.532925L34.5135 6.71915L37.7415 5.969875L37.564 5.155425L35.3125 5.676675L35.28825 5.7174ZM39.87975 1.08321C40.68675 0.985475 41.0015 0.5945425 40.929 0L40.259 0.08958875C40.259 0.3827875 40.138 0.55382 39.81525 0.5945425C39.4925 0.635265 39.29875 0.5131 39.2585 0.21989975L38.58875 0.3094875C38.6695 0.9040325 39.073 1.1890875 39.87975 1.1239325V1.08321ZM38.516 5.872125L37.96725 1.6125975L38.93575 1.49043L39.29075 4.259525L40.953 1.221665L41.865 1.0994975L42.41375 5.359025L41.4535 5.456775L41.09825 2.68765L39.4845 5.7174L38.5645 5.83955L38.516 5.872125ZM43.479 5.3183L45.49625 5.367175C46.58575 5.367175 47.23125 4.9111 47.2475 4.047775C47.2635 3.184475 46.72275 2.7691 45.698 2.744675H44.51975V1.85693L46.94075 1.922085V1.1076425L43.503 1.0261975L43.40625 5.32645L43.479 5.3183ZM44.4715 4.642325V3.49395H45.456C45.9725 3.49395 46.263 3.697575 46.2145 4.08035C46.166 4.46315 45.96425 4.642325 45.48825 4.642325H44.4715ZM49.975 5.76625C50.404 5.797525 50.83275 5.7013 51.20825 5.489525C51.58375 5.277725 51.8895 4.9596 52.088 4.574425C52.2865 4.189225 52.36875 3.753825 52.325 3.321925C52.28125 2.890025 52.113 2.480545 51.84125 2.1439925C51.5695 1.8074375 51.206 1.558545 50.79575 1.4280225C50.3855 1.2975025 49.94625 1.2910625 49.5325 1.4095C49.11875 1.52794 48.74825 1.7660725 48.467 2.0945175C48.1855 2.42296 48.00575 2.82735 47.9495 3.257775C47.91025 3.558225 47.93225 3.8636 48.014 4.15515C48.096 4.4467 48.236 4.718275 48.42575 4.9532C48.6155 5.188125 48.85075 5.381425 49.117 5.52125C49.3835 5.66105 49.6755 5.74445 49.975 5.76625ZM50.07975 4.951825C49.902 4.93225 49.73025 4.876075 49.57475 4.7868C49.4195 4.6975 49.28375 4.577 49.1765 4.432725C49.069 4.28845 48.992 4.123475 48.9505 3.948C48.90875 3.772525 48.903 3.590275 48.934 3.412525C48.95675 3.2371 49.0135 3.06795 49.101 2.9147C49.1885 2.76145 49.30525 2.6271 49.44425 2.519325C49.58325 2.41156 49.742 2.3324775 49.91125 2.2865975C50.0805 2.2407175 50.257 2.22894 50.43075 2.251935C50.6045 2.27493 50.77225 2.3322475 50.924 2.4206175C51.076 2.508975 51.209 2.626675 51.31575 2.766975C51.4225 2.90725 51.501 3.0674 51.5465 3.23825C51.59175 3.4091 51.6035 3.587325 51.58075 3.762725C51.55825 3.937275 51.501 4.10545 51.41275 4.257225C51.32425 4.409 51.20675 4.541275 51.0665 4.64615C50.9265 4.75105 50.767 4.826375 50.5975 4.8677C50.428 4.909025 50.25175 4.915475 50.07975 4.88665V4.951825ZM54.36475 2.011675L57.5925 2.752825L56.61625 6.93905L55.672 6.71915L56.479 3.322925L55.0265 3.01345L54.8005 3.827875C54.36475 5.456775 53.921 6.35265 52.9445 6.1246C52.7865 6.08575 52.6345 6.0255 52.4925 5.945425L52.73475 5.131C52.786 5.164475 52.84375 5.18665 52.90425 5.19615C53.38825 5.310175 53.65475 4.723775 53.94525 3.65685L54.36475 2.011675ZM60.46525 5.26945L59.4405 4.919225L59.88425 3.58355L58.95625 3.265925L57.60075 7.338125L59.41625 7.9571C60.45725 8.307325 61.24 8.03855 61.55475 7.142675C61.8695 6.246775 61.43375 5.6441 60.46525 5.310175V5.26945ZM59.602 7.2404L58.795 6.95535L59.2065 5.578925L60.0135 5.864C60.49775 6.026875 60.7235 6.311925 60.57025 6.759875C60.5425 6.86165 60.49225 6.955825 60.42375 7.03555C60.35525 7.115275 60.26975 7.17855 60.174 7.2207C60.078 7.26285 59.974 7.28285 59.8695 7.2792C59.76475 7.275575 59.6625 7.2484 59.5695 7.199675L59.602 7.2404ZM66.2755 6.35265L67.155 6.80875L65.2265 10.58775L64.34675 10.131675L65.15375 8.56795L63.435 7.67205L62.628 9.235775L61.7485 8.7797L63.70125 4.95995L64.589 5.456775L63.782 6.963475L65.50075 7.859375L66.30775 6.35265H66.2755ZM68.89 12.87635L69.7615 13.4383L70.504 8.78785L69.697 8.25845L65.8075 10.840225L66.61425 11.3859L67.42125 10.8158L69.08375 11.899L68.89 12.87635ZM68.083 10.343425L69.5355 9.333525L69.22075 11.084575L68.083 10.343425ZM73.86075 11.288175L75.34575 12.43655L72.731 15.816475L71.92425 15.230075L72.61825 14.3342L71.908 13.772225L70.61675 14.203875L69.81 13.560475L71.31075 13.0718C71.16525 12.817975 71.10175 12.5246 71.12925 12.2326C71.15675 11.9406 71.27375 11.66455 71.46425 11.442925C72.0695 10.628475 72.9975 10.628475 73.885 11.32075L73.86075 11.288175ZM73.38475 11.939725C73.31375 11.834475 73.2195 11.74745 73.10925 11.68565C72.999 11.623825 72.876 11.58895 72.75 11.5838C72.624 11.57865 72.4985 11.603375 72.38375 11.655975C72.269 11.708575 72.168 11.7876 72.089 11.886725C72.00975 11.98585 71.95475 12.102275 71.92825 12.226725C71.902 12.35115 71.90475 12.4801 71.9365 12.60325C71.9685 12.726375 72.0285 12.840275 72.11175 12.9358C72.195 13.0313 72.2995 13.1058 72.4165 13.15325L73.09425 13.690775L74.0465 12.460975L73.38475 11.9723V11.939725ZM81.0025 18.455275L78.404 20.74385L77.5245 19.709525L80.131 17.420925L79.48525 16.67165L76.87875 18.960225L75.99925 17.934025L78.5735 15.6536L77.928 14.9043L74.7 17.722275L78.388 21.9981L81.61575 19.180125L80.97025 18.439L81.0025 18.455275ZM80.5425 25.2315L81.3495 23.350075L80.97825 22.771825L79.54175 23.716575L79.00925 22.902125L82.60825 20.5321L83.14075 21.34655L81.6965 22.2913L82.08375 22.88585H84.1335L84.69825 23.7736L82.221 23.724725L81.15575 26.168L80.5425 25.22325V25.2315ZM82.26125 28.416C82.4805 28.78925 82.8035 29.08975 83.18975 29.28025C83.57625 29.4705 84.0095 29.54275 84.43625 29.4875C84.86275 29.43225 85.264 29.2525 85.5905 28.96975C85.917 28.68725 86.15425 28.3145 86.27325 27.89725C86.39225 27.48025 86.38775 27.037 86.26025 26.6225C86.1325 26.208 85.8875 25.84025 85.5555 25.5645C85.22325 25.289 84.81825 25.1175 84.39075 25.07125C83.963 25.025 83.5315 25.10625 83.149 25.30475C82.88175 25.4435 82.6455 25.63575 82.45475 25.87C82.26375 26.10425 82.1225 26.3755 82.03925 26.66675C81.95625 26.95825 81.933 27.26375 81.97125 27.5645C82.00925 27.86525 82.108 28.155 82.26125 28.416ZM83.00375 28.025C83.1225 28.271 83.31125 28.47575 83.546 28.613C83.78075 28.75025 84.0505 28.81375 84.32125 28.79525C84.59175 28.777 84.85075 28.6775 85.06525 28.50975C85.2795 28.342 85.4395 28.11375 85.5245 27.85375C85.6095 27.59375 85.616 27.31425 85.54275 27.05075C85.4695 26.787 85.32025 26.5515 85.11375 26.374C84.90725 26.1965 84.653 26.08525 84.3835 26.0545C84.114 26.0235 83.8415 26.0745 83.60075 26.20075C83.4385 26.27575 83.293 26.38375 83.174 26.51825C83.05475 26.6525 82.96425 26.81025 82.90825 26.9815C82.85225 27.15275 82.83175 27.33375 82.84825 27.51325C82.8645 27.69275 82.9175 27.867 83.00375 28.025ZM87.75675 29.98775L88.959 33.05825L85.02925 34.622L84.666 33.70975L87.89375 32.431L87.36125 31.06275L86.55425 31.36425C84.9405 31.93425 83.99625 32.0645 83.633 31.128C83.57475 30.9735 83.53675 30.812 83.52025 30.6475L84.327 30.395C84.3225 30.452 84.3225 30.50925 84.327 30.566C84.51275 31.0385 85.134 30.9245 86.175 30.566L87.789 29.97975L87.75675 29.98775ZM86.054 38.849L86.288 39.867L90 37.03275L89.78225 36.07175L85.20675 35.17575L85.4325 36.1695L86.409 36.33225L86.85275 38.27075L86.046 38.849H86.054ZM87.208 36.47075L88.951 36.764L87.5145 37.79825L87.208 36.47075Z" fill="#00A5DF"></path><path fill-rule="evenodd" clip-rule="evenodd" d="M35.99025 13.84555C38.726 12.2574 42.0425 13.18585 44.86675 14.37495C47.65075 13.18585 50.9675 12.2574 53.74325 13.84555C57.068 12.957825 62.281 12.17595 63.0315 16.736825C63.2575 18.1051 62.65225 21.354725 62.644 22.437925C62.726 22.421375 62.807 22.399625 62.88625 22.372775L65.541 21.558325L64.371 24.10755C64.15575 24.5897 63.86725 25.035 63.5155 25.427C64.597 26.4775 65.517 27.64225 65.404 28.986C66.49075 29.523 67.34975 30.4365 67.82475 31.55975L69.697 35.697L68.083 34.58125C70.36675 38.89775 69.697 43.76825 67.75225 48.8015L67.47775 49.52625L68.3735 49.15975L66.6225 51.77425L65.66225 54.45375L65.61375 53.32975C60.538 60.3665 53.55775 64.26775 44.97975 65.302H44.84275H44.68125C36.063 64.26775 29.115 60.3665 24.0796 53.32975L24.0312 54.45375L23.014425 51.77425L21.279475 49.15975L22.1752 49.52625L21.900825 48.8015C19.988325 43.76825 19.286275 38.89775 21.569975 34.58125L19.95605 35.697L21.925025 31.519C22.4024 30.3975 23.2609 29.48475 24.3459 28.94525C24.232925 27.6015 25.15275 26.43675 26.23425 25.38625C25.8825 24.994175 25.594 24.548975 25.37875 24.066825L24.184525 21.509475L26.8395 22.3239C26.91875 22.35075 26.9995 22.372525 27.0815 22.389075C27.0815 21.3303 26.46825 18.080675 26.69425 16.687975C27.4445 12.127075 32.6575 12.90895 35.99025 13.7967V13.84555ZM65.4605 50.34075V49.844C65.28275 50.0965 65.09725 50.3325 64.91175 50.56875L65.4845 50.34075H65.4605ZM24.192575 50.34075L24.765525 50.56875C24.579925 50.3325 24.394325 50.0965 24.2168 49.844L24.192575 50.34075Z" fill="white"></path><path fill-rule="evenodd" clip-rule="evenodd" d="M53.461 15.23005C51.16925 13.60115 48.11075 14.301575 44.8265 15.767575C41.54225 14.301575 38.48375 13.568575 36.192 15.23005C21.13425 10.954225 32.27025 25.4025 26.5085 23.56995C26.718 24.130375 27.09225 24.612675 27.5815 24.95195C28.0705 25.29125 28.65075 25.47125 29.24425 25.4675C27.84825 28.09 26.54075 28.5055 27.2025 26.20875C25.88725 27.471 25.06425 28.5055 25.968 29.8575C24.692925 29.8575 23.740725 30.672 23.07095 32.08075C23.366675 31.8005 23.7416 31.62 24.143625 31.5645C24.545675 31.509 24.95485 31.58125 25.31425 31.7715C20.2143 36.544 20.754975 42.294 23.062875 48.3535L23.167775 45.5925C24.7818 49.0335 27.26425 51.9855 30.36575 54.15225L24.507325 51.823C29.41375 59.153 36.27275 63.03775 44.78625 64.0395C53.2995 63.0135 60.11825 59.096 65.065 51.823L59.263 54.15225C62.36475 51.9855 64.847 49.0335 66.461 45.5925L66.566 48.3535C68.87375 42.294 69.4145 36.544 64.3145 31.7715C64.67175 31.57525 65.0805 31.4965 65.48425 31.54625C65.88775 31.59575 66.266 31.77125 66.566 32.04825C65.89625 30.63125 64.952 29.8655 63.669 29.82475C64.57275 28.473 63.74975 27.4385 62.43425 26.17625C63.096 28.473 61.78875 28.0575 60.39275 25.435C60.9865 25.43975 61.56725 25.26025 62.0565 24.920825C62.54575 24.581425 62.92 24.098475 63.12825 23.53735C57.38275 25.36975 68.51875 10.92165 53.461 15.23005Z" fill="#1D1D1B"></path><path fill-rule="evenodd" clip-rule="evenodd" d="M59.8845 24.189075C59.7955 23.85515 56.44675 22.24255 56.20475 20.116875C56.20475 18.7649 57.13275 18.90335 57.48775 19.8644C57.54425 19.04995 57.5685 18.3088 57.56025 17.7224C57.902 17.73885 58.237 17.823625 58.546 17.971825C58.85475 18.120025 59.1315 18.3287 59.35975 18.585725C59.64225 18.935925 59.80375 19.0418 59.35975 18.8789C58.99925 18.78525 58.62575 18.752225 58.25425 18.781175C59.18225 19.10695 59.76325 21.338525 59.06125 22.372875C58.8595 22.649775 58.7305 22.747525 58.9725 22.657925C61.3935 21.7539 61.3935 18.357675 59.52125 16.7858C57.4715 15.051025 55.4865 15.53155 53.332 16.7858C50.71725 14.342475 47.425 16.231975 44.8345 17.258175C42.2605 16.28085 38.94375 14.415775 36.32925 16.8591C34.19075 15.5967 32.1895 15.116175 30.156 16.8591C28.3 18.430975 28.32425 21.8272 30.70475 22.731225C30.947 22.820825 30.81775 22.731225 30.616 22.446175C29.88975 21.411825 30.47075 19.1884 31.423 18.854475C31.049 18.825075 30.67275 18.8581 30.3095 18.9522C29.88175 19.1151 30.043 19.009225 30.3095 18.659C30.53775 18.402 30.8145 18.193325 31.12325 18.045125C31.43225 17.896925 31.76725 17.81215 32.109 17.7957C32.109 18.3821 32.109 19.090675 32.1815 19.9377C32.5365 18.97665 33.47275 18.8382 33.4645 20.190175C33.2225 22.283275 29.8735 23.895875 29.78475 24.262375C29.99775 24.4062 30.238 24.503175 30.4905 24.547C30.74275 24.590825 31.0015 24.580525 31.24975 24.51675C31.49775 24.453 31.72975 24.337175 31.93075 24.1769C32.13175 24.0166 32.29675 23.8154 32.4155 23.5864L30.92275 26.39625C30.36275 27.58925 29.37275 28.5215 28.15475 29.0025C32.79475 36.12075 33.12575 40.5675 30.3175 43.05975C27.50125 40.315 26.06475 36.813 27.68675 31.519C23.5148 33.881 23.02255 36.308 23.28885 41.2925C24.531575 35.19225 24.345975 44.998 28.76 47.57175C21.88475 44.713 29.349 51.06575 32.85125 53.57425C36.96675 56.0175 36.4825 57.003 31.2375 56.48175C34.53775 59.21825 40.33975 61.238 44.78625 62.085C49.2325 61.27075 55.0345 59.21825 58.335 56.48175C53.122 57.003 52.638 56.02575 56.721 53.57425C60.312 51.06575 67.76825 44.713 60.893 47.57175C65.30725 44.998 65.1215 35.19225 66.36425 41.2925C66.6305 36.29175 66.13825 33.86475 61.96625 31.519C63.58025 36.82925 62.152 40.33125 59.35975 43.03525C56.5435 40.543 56.8745 36.09625 61.5145 28.978C60.2965 28.497 59.3065 27.56475 58.7465 26.37175L57.25375 23.56195C57.3725 23.79095 57.5375 23.99215 57.7385 24.15245C57.93925 24.31275 58.1715 24.42855 58.4195 24.492325C58.66775 24.5561 58.9265 24.5664 59.17875 24.522575C59.43125 24.47875 59.6715 24.381775 59.8845 24.23795V24.189075ZM44.8185 24.58V24.637025C44.97125 24.947225 45.22675 25.19375 45.54075 25.3335C45.85475 25.47325 46.20725 25.49775 46.53725 25.4025C47.6825 25.0595 48.7825 24.578275 49.8135 23.969175C57.2295 20.035425 55.80925 25.9075 55.80925 25.598C55.833 25.26375 55.73075 24.932525 55.52275 24.671175C55.3145 24.4098 55.01625 24.237575 54.6875 24.189075C53.50125 23.977325 53.8805 24.189075 53.01725 24.189075C53.7435 24.189075 54.841 24.7266 54.48575 25.54925C54.40075 25.7805 54.2695 25.99175 54.1 26.1695C53.93075 26.3475 53.727 26.4885 53.50125 26.5835C53.50125 26.5835 56.09975 28.17175 55.01025 27.78075C54.857 27.72375 52.3555 27.5935 52.8155 27.732C53.41875 27.95275 53.9655 28.3075 54.41525 28.76975C54.865 29.232 55.20625 29.79025 55.41375 30.40325C55.6705 31.655 55.706 32.9425 55.51875 34.20675C55.32925 33.5365 54.9705 32.9275 54.47775 32.4395C54.69275 33.68975 54.48825 34.9765 53.89675 36.09625C53.44475 37.098 52.51675 38.7025 52.54925 39.72875C52.54925 39.84275 52.3635 39.8915 52.27475 39.50875C52.22625 39.30525 51.46775 37.11425 51.46775 37.1225C50.17675 38.32775 52.178 40.20925 52.49275 41.85425C52.59525 42.4385 52.558 43.039 52.38375 43.60575C52.20975 44.1725 51.904 44.689 51.492 45.112C50.12025 46.741 47.417 46.4805 46.36775 47.5555C46.076 47.83225 45.80625 48.13175 45.561 48.45125C45.29125 48.80875 45.046 49.18425 44.8265 49.57525C44.60725 49.18425 44.36175 48.80875 44.09225 48.45125C43.847 48.13175 43.577 47.83225 43.28525 47.5555C42.23625 46.44775 39.533 46.741 38.161 45.112C37.749 44.689 37.44325 44.1725 37.26925 43.60575C37.09525 43.039 37.058 42.4385 37.1605 41.85425C37.47525 40.2255 39.4765 38.32775 38.18525 37.1225C38.18525 37.1225 37.43475 39.30525 37.37825 39.50875C37.2895 39.8915 37.104 39.84275 37.104 39.72875C37.104 38.7025 36.20825 37.098 35.7645 36.09625C35.17025 34.9775 34.96275 33.6905 35.17525 32.4395C34.68425 32.929 34.32575 33.5375 34.13425 34.20675C33.94725 32.9425 33.98275 31.655 34.23925 30.40325C34.447 29.79025 34.78825 29.232 35.23775 28.76975C35.6875 28.3075 36.23425 27.95275 36.83775 27.732C37.29775 27.5935 34.796 27.732 34.64275 27.78075C33.55325 28.17175 36.1355 26.5835 36.15175 26.5835C35.92625 26.4885 35.7225 26.3475 35.553 26.1695C35.38375 25.99175 35.25225 25.7805 35.16725 25.54925C34.81225 24.73475 35.90975 24.189075 36.636 24.189075C35.73225 24.189075 36.15175 23.969175 34.9655 24.189075C34.62475 24.233925 34.315 24.41155 34.10225 24.684C33.88975 24.956475 33.791 25.302 33.82775 25.647C33.82775 25.9645 32.4075 20.092425 39.8235 24.01805C40.845 24.6191 41.934 25.09475 43.0675 25.43525C43.39725 25.53025 43.75 25.506 44.064 25.366C44.378 25.22625 44.6335 24.9798 44.78625 24.6696V24.6126L44.8185 24.58Z" fill="white"></path><path fill-rule="evenodd" clip-rule="evenodd" d="M45.359 58.6725C44.51175 54.66525 50.87875 50.251 50.572 50.59325C48.62725 52.8735 52.1375 52.222 56.148 44.65575C57.37475 42.36725 56.05925 45.226 56.67275 46.28475C57.122 47.1185 57.43275 48.021 57.5925 48.956C57.69775 49.7925 57.54325 50.6415 57.15 51.3855C56.75675 52.1295 56.1445 52.732 55.39775 53.10975C54.389 53.70425 49.88625 55.496 49.5715 55.82175C49.49075 55.89525 49.31325 56.12325 49.2325 56.12325C49.2325 53.95675 45.464 57.076 45.359 58.5665V58.6725Z" fill="#1D1D1B"></path><path fill-rule="evenodd" clip-rule="evenodd" d="M44.17275 58.6725C44.97975 54.66525 38.64525 50.23475 38.95175 50.59325C40.8965 52.8735 37.38625 52.222 33.37575 44.65575C32.149 42.36725 33.4645 45.226 32.85125 46.28475C32.39675 47.10675 32.078 47.998 31.907 48.9235C31.80175 49.76 31.9565 50.609 32.3495 51.353C32.74275 52.097 33.355 52.6995 34.102 53.07725C35.11075 53.67175 39.6135 55.4635 39.93625 55.78925C40.009 55.8625 40.1865 56.09075 40.267 56.09075C40.267 53.92425 44.0355 57.0435 44.1405 58.534L44.17275 58.6725Z" fill="#1D1D1B"></path><path fill-rule="evenodd" clip-rule="evenodd" d="M50.0395 37.22C50.49975 36.70625 50.92575 36.162 51.3145 35.59125C51.7825 34.77675 52.58125 32.6185 51.7825 31.796C51.5 31.50275 45.79475 28.473 44.81025 28.53825C43.834 28.473 38.12075 31.50275 37.84625 31.796C37.03925 32.61025 37.84625 34.7605 38.31425 35.59125C38.7005 36.162 39.12375 36.706 39.58125 37.22C39.791 37.22 39.912 36.7315 39.97675 36.593C40.4205 35.6645 41.42125 35.4365 42.333 35.22475C42.68 35.164 43.03025 35.12325 43.382 35.1025C43.382 35.0455 43.57575 35.013 43.69675 34.85825C43.8655 34.71725 43.9945 34.53375 44.071 34.3265C44.1475 34.11925 44.16875 33.8955 44.1325 33.67725C44.1325 32.52075 40.816 32.7245 41.42125 30.68025C41.77625 29.49925 43.75325 29.22225 44.77 29.22225C45.78675 29.22225 47.772 29.49925 48.119 30.68025C48.724 32.7245 45.4075 32.52075 45.4075 33.67725C45.37375 33.89525 45.396 34.1185 45.47225 34.32525C45.54875 34.532 45.6765 34.7155 45.84325 34.85825C45.9725 35.013 46.166 35.0455 46.166 35.1025C46.515 35.123 46.86275 35.16375 47.207 35.22475C48.127 35.4365 49.1195 35.6645 49.56325 36.593C49.636 36.7315 49.757 37.2445 49.96675 37.22H50.0395Z" fill="white"></path><path fill-rule="evenodd" clip-rule="evenodd" d="M44.84275 29.556C45.402 29.51575 45.963 29.603 46.48425 29.81175C47.00525 30.0205 47.473 30.345 47.85275 30.7615C46.87725 30.3505 45.827 30.15075 44.77 30.175C43.79025 30.15875 42.816 30.32725 41.89725 30.67175C42.28275 30.287 42.74425 29.98875 43.252 29.7965C43.7595 29.604 44.3015 29.52225 44.84275 29.556Z" fill="white"></path><path fill-rule="evenodd" clip-rule="evenodd" d="M49.42625 39.248C49.4785 39.57875 49.40175 39.917 49.21225 40.19175C49.02275 40.46675 48.735 40.65675 48.4095 40.722C47.546 40.9175 45.9885 41.21075 45.335 41.96C45.1735 41.1455 45.23 41.60175 45.335 40.89325C45.0445 40.78725 44.09225 41.7075 43.955 42.245C43.955 42.351 42.22825 42.017 42.1555 41.35725C42.083 40.69775 42.25225 40.315 41.639 41.0315C40.5415 42.31025 38.52425 36.21 44.2375 36.21C46.02075 36.21 49.42625 36.21825 49.42625 39.248Z" fill="white"></path><path fill-rule="evenodd" clip-rule="evenodd" d="M40.009 25.85875C39.541 25.6305 39.1215 25.3375 38.5645 25.1175C36.78925 24.433375 35.57875 25.313 36.95075 26.17625C37.441 26.40825 37.98475 26.50125 38.5235 26.44525C39.06225 26.38925 39.57575 26.1865 40.009 25.85875Z" fill="#EF7D00"></path><path fill-rule="evenodd" clip-rule="evenodd" d="M49.1035 25.85875C49.5715 25.6305 49.991 25.3375 50.556 25.1175C52.32325 24.433375 53.54175 25.313 52.16975 26.17625C51.6785 26.40975 51.13325 26.50375 50.59275 26.44775C50.0525 26.39175 49.5375 26.188 49.1035 25.85875Z" fill="#EF7D00"></path><path fill-rule="evenodd" clip-rule="evenodd" d="M72.844 76.73675C62.35375 73.088 53.7435 71.30425 45.13325 71.32875C36.523 71.35325 27.81575 73.1775 17.155925 76.73675C16.4557 74.701 16.090425 72.56325 16.0746 70.4085V52.69425C16.073825 51.6575 16.1304 50.62175 16.24405 49.59125H73.73175C73.8385 50.6195 73.89225 51.6525 73.893 52.68625V70.4085C73.89225 72.562 73.53775 74.70025 72.844 76.73675Z" fill="#1D1D1B"></path><path fill-rule="evenodd" clip-rule="evenodd" d="M19.939925 61.65325L18.051625 61.89775V52.28725H19.964125V61.65325H19.939925ZM19.8915 73.0065L18.051625 73.57675V64.52825L19.859225 64.17C20.56935 65.23675 21.287525 66.263 22.005725 67.281C22.71585 65.96175 23.43405 64.67475 24.152225 63.40425C24.749375 63.2985 25.3545 63.20875 25.95175 63.1275V71.1415C25.3545 71.29625 24.749375 71.451 24.152225 71.63025V66.44225C23.627725 67.387 23.1032 68.35625 22.538325 69.3335L21.39245 69.62675C20.867925 68.90175 20.3434 68.16875 19.818875 67.4115V72.966L19.8915 73.0065ZM32.73825 62.2885V63.779C31.29375 63.95 29.8575 64.15375 28.421 64.349V65.864L32.133 65.302L31.77 66.8575L28.44525 67.42775V68.58425C28.443 68.62175 28.44825 68.65925 28.4605 68.6945C28.47275 68.73 28.49175 68.76275 28.5165 68.79075C28.54125 68.81875 28.57125 68.8415 28.6045 68.85775C28.638 68.874 28.6745 68.8835 28.7115 68.8855C28.7675 68.89775 28.82525 68.89775 28.881 68.8855C30.17225 68.633 31.46325 68.38875 32.7625 68.177V69.65925C31.46325 69.88725 30.156 70.156 28.85675 70.47375C28.5775 70.553 28.28425 70.57075 27.9975 70.52575C27.71075 70.48075 27.43675 70.37425 27.1945 70.213C27.00075 70.076 26.8455 69.89075 26.74375 69.67525C26.642 69.45975 26.597 69.2215 26.6135 68.98325V63.03775C28.655 62.75275 30.69675 62.5085 32.73825 62.2885ZM36.40175 61.971C37.8545 61.87325 39.29875 61.8 40.75125 61.743V67.3545L41.48575 67.3055V69.46375L39.67 69.60225V68.83675C38.153 68.95875 36.62775 69.138 35.11075 69.31725V70.13175L33.31125 70.44125V68.10375C35.18325 67.82675 37.0635 67.615 38.96 67.43575V63.28225C38.153 63.331 37.2815 63.39625 36.44225 63.46125C36.388 63.4545 36.33325 63.45925 36.281 63.47525C36.22875 63.49125 36.1805 63.51825 36.1395 63.55425C36.09825 63.5905 36.06525 63.635 36.04225 63.685C36.01925 63.73475 36.00725 63.789 36.0065 63.84425V66.8575C35.40125 67.0285 34.796 67.20775 34.19875 67.40325V63.95825C34.20475 63.678 34.27575 63.403 34.406 63.1555C34.5365 62.90775 34.7225 62.69475 34.94925 62.533C35.37075 62.199 35.88325 62.003 36.418 61.971H36.40175ZM46.48075 68.58425C45.004 68.58425 43.52725 68.58425 42.0505 68.633V61.65325C43.52725 61.65325 44.996 61.6045 46.48075 61.65325C47.08925 61.64275 47.6805 61.857 48.143 62.256C48.31775 62.3955 48.45975 62.57225 48.559 62.7735C48.658 62.97475 48.7115 63.19575 48.716 63.42075V64.15375C48.70475 64.5295 48.5485 64.886 48.28025 65.14725C48.5535 65.425 48.70975 65.7985 48.716 66.18975V66.9145C48.70775 67.173 48.6325 67.42475 48.498 67.64475C48.36375 67.86475 48.1745 68.0455 47.9495 68.16875C47.5105 68.44725 46.99875 68.58625 46.48075 68.568V68.58425ZM44.80225 64.406C45.343 64.406 45.89975 64.406 46.41625 64.406C46.49775 64.41625 46.5805 64.40075 46.65275 64.36125C46.725 64.32175 46.7835 64.26075 46.81975 64.18625C46.83075 64.14625 46.83075 64.104 46.81975 64.064V63.38C46.81975 63.23325 46.731 63.1275 46.5535 63.0705C46.50025 63.0455 46.4425 63.0315 46.384 63.02975C45.5205 63.02975 44.657 63.02975 43.7935 63.02975V67.1915C44.657 67.1915 45.5205 67.1915 46.384 67.1915C46.46275 67.20175 46.54275 67.18875 46.61425 67.154C46.686 67.11925 46.746 67.0645 46.7875 66.996C46.79825 66.95325 46.79825 66.9085 46.7875 66.86575V66.1735C46.7875 66.01875 46.6905 65.91275 46.505 65.85575H46.35175C45.67375 65.85575 44.988 65.85575 44.31 65.85575C44.43925 65.3915 44.56825 64.91925 44.7055 64.44675L44.80225 64.406ZM55.3815 62.0605V63.5265C53.937 63.40425 52.50075 63.2985 51.06425 63.209V64.58525C52.307 64.66675 53.54175 64.7725 54.78425 64.8785C54.64725 65.35075 54.518 65.82325 54.389 66.2955C53.2835 66.18975 52.178 66.07575 51.06425 66.0025V67.045C51.06425 67.19975 51.161 67.3055 51.3305 67.387C51.38675 67.3935 51.44375 67.3935 51.5 67.387C52.79925 67.50925 54.08225 67.6475 55.3815 67.79425V69.244C54.08225 69.081 52.783 68.91 51.484 68.796C50.87625 68.778 50.29175 68.5575 49.8215 68.16875C49.6495 68.0225 49.51075 67.84075 49.41475 67.6355C49.31875 67.43025 49.2675 67.20675 49.26475 66.97975V61.7185C51.29825 61.8 53.34 61.922 55.3815 62.0605ZM59.05325 62.427C60.4975 62.60625 61.95025 62.77725 63.3945 62.997V69.309L64.129 69.48825V71.9315L62.32125 71.443V70.61225C60.799 70.27 59.279 69.95525 57.762 69.6675V70.48175L55.97875 70.17225V67.9245C57.85875 68.2015 59.739 68.53525 61.62725 68.90175V64.30025L59.10975 63.94175C59.03075 63.9225 58.94775 63.9285 58.8725 63.959C58.79725 63.98975 58.7335 64.0435 58.69 64.113C58.687 64.15625 58.687 64.19975 58.69 64.24325V67.3545L56.8825 67.4195V64.01525C56.877 63.75625 56.93975 63.50075 57.06475 63.2745C57.1895 63.0485 57.37175 62.86 57.5925 62.72825C58.03425 62.47175 58.551 62.3795 59.05325 62.46775V62.427ZM66.469 63.48575C65.864 63.38 65.25875 63.274 64.6615 63.1845V71.23125C65.25875 71.386 65.864 71.57325 66.469 71.7525C67.0825 71.0195 67.69575 70.27 68.301 69.49625C68.906 68.72275 69.5275 67.93275 70.14075 67.12625V72.9415L71.9565 73.5685V64.52825L70.14075 64.17C69.5275 64.98425 68.91425 65.79875 68.301 66.61325C67.6875 67.42775 67.1065 68.16875 66.469 68.98325V63.48575ZM23.4986 55.8055V52.28725H25.42725V60.83875L23.4986 61.09125V57.581C22.457625 57.67075 21.41665 57.752 20.38375 57.84975C20.520925 57.2145 20.666175 56.57925 20.80335 55.95225L23.4986 55.7975V55.8055ZM32.577 52.29525V53.8835L28.0015 53.973V55.602L31.9395 55.44725C31.80225 55.98475 31.665 56.52225 31.51975 57.076L28.0015 57.27975V58.51775C28.0015 58.6 28.02975 58.6795 28.081 58.74325C28.1325 58.807 28.204 58.851 28.28375 58.868C28.3425 58.8795 28.40275 58.8795 28.4615 58.868C29.83325 58.77025 31.205 58.66425 32.577 58.57475V60.1465C31.197 60.2605 29.817 60.38275 28.44525 60.52125C28.13775 60.5645 27.82475 60.54275 27.526 60.45725C27.22725 60.37175 26.9495 60.22425 26.71025 60.0245C26.51825 59.85775 26.36575 59.64975 26.26375 59.416C26.16175 59.182 26.113 58.928 26.12125 58.6725V52.29525H32.577ZM37.88675 59.8045C36.32125 59.886 34.75575 59.9755 33.19825 60.0895V52.28725H37.88675C38.53175 52.2625 39.1625 52.4835 39.654 52.90625C39.836 53.055 39.98375 53.24225 40.08675 53.45475C40.19 53.667 40.246 53.8995 40.251 54.136V54.9505C40.24425 55.34175 40.09825 55.71775 39.8395 56.00925C39.98575 56.1485 40.10275 56.3165 40.183 56.5025C40.2635 56.68875 40.30575 56.88925 40.3075 57.0925V57.90675C40.3005 58.19 40.22275 58.46675 40.08175 58.7115C39.94075 58.95625 39.74075 59.1615 39.5005 59.30775C39.0405 59.63325 38.49675 59.81725 37.935 59.837L37.88675 59.8045ZM36.11125 55.325H37.8545C37.94375 55.33225 38.03325 55.31225 38.111 55.267C38.18875 55.222 38.25125 55.15425 38.29025 55.0725C38.302 55.02725 38.302 54.9795 38.29025 54.93425V54.20125C38.291 54.1205 38.26275 54.04225 38.211 53.98075C38.159 53.91925 38.08675 53.879 38.00775 53.86725C37.9465 53.8555 37.8835 53.8555 37.822 53.86725H35.0785V58.3955L37.822 58.2815C37.90875 58.2835 37.9945 58.263 38.071 58.2215C38.14725 58.18025 38.21175 58.1195 38.25775 58.04525C38.26775 57.997 38.26775 57.947 38.25775 57.89875V57.1495C38.25775 56.9785 38.153 56.8725 37.95925 56.82375C37.903 56.81625 37.846 56.81625 37.78975 56.82375L35.62725 56.897C35.76425 56.37575 35.9095 55.8625 36.04675 55.34125L36.11125 55.325ZM42.88975 58.06975C42.9895 58.13275 43.10325 58.16925 43.22075 58.1755C44.75375 58.1755 46.29525 58.1755 47.8365 58.1755V59.64975C46.287 59.64975 44.73775 59.64975 43.18825 59.64975C42.6095 59.65975 42.043 59.47975 41.5745 59.13675C41.36675 58.9935 41.19525 58.80325 41.07325 58.58125C40.9515 58.35925 40.88275 58.1115 40.8725 57.858V54.12775C40.88025 53.8715 40.94775 53.6205 41.06975 53.3955C41.19175 53.1705 41.36475 52.97775 41.5745 52.83275C42.0395 52.48 42.6065 52.29125 43.18825 52.29525H47.909C47.772 52.79225 47.62675 53.28075 47.4895 53.77775C46.08525 53.77775 44.68925 53.77775 43.29325 53.77775C43.17425 53.774 43.0575 53.81125 42.9625 53.8835C42.921 53.91125 42.88675 53.94875 42.863 53.99275C42.839 54.03675 42.826 54.08575 42.82525 54.136V57.809C42.8295 57.85975 42.84375 57.90875 42.86725 57.95375C42.891 57.9985 42.92325 58.038 42.9625 58.06975H42.88975ZM56.3175 52.29525C55.22825 53.574 54.155 54.82825 53.08975 56.06625C54.171 57.36125 55.24425 58.6725 56.3175 60.0245L53.89675 59.87775C53.6385 59.601 53.08975 58.9575 52.3555 57.95575C51.94375 57.4345 51.621 57.0355 51.36275 56.76675H50.3865V59.73125L48.46575 59.67425V52.34425H50.3865V55.30075H51.371C51.62375 55.0455 52.13225 54.44275 52.896 53.4925C53.2995 52.9875 53.6385 52.59675 53.89675 52.328L56.3175 52.29525ZM59.021 52.29525H57.1325V60.0815L59.05325 60.23625C59.69875 59.42175 60.35225 58.60725 60.998 57.72775C61.6435 56.848 62.29725 55.993 62.95075 55.10525V60.627L64.85525 60.83875V52.29525H62.95075C62.29725 53.2075 61.6435 54.1115 60.998 54.99125C60.35225 55.87075 59.69875 56.71775 59.05325 57.581V52.29525H59.021ZM72.013 52.29525V54.24175L67.4375 54.1035V55.84625L71.3755 56.0825C71.23825 56.71775 71.101 57.33675 70.95575 57.96375L67.4375 57.64625V58.97375C67.43575 59.066 67.46175 59.15675 67.51225 59.234C67.5625 59.311 67.635 59.37075 67.72 59.4055C67.77525 59.4365 67.83525 59.4585 67.8975 59.4705C69.26925 59.62525 70.641 59.8045 72.013 59.9755V61.89775C70.633 61.68575 69.253 61.45775 67.88125 61.26225C67.1925 61.17525 66.56125 60.829 66.114 60.29325C65.736 59.88675 65.52275 59.352 65.517 58.7945V52.279L72.013 52.29525Z" fill="white"></path><path fill-rule="evenodd" clip-rule="evenodd" d="M72.844 76.73675C62.35375 73.088 53.7435 71.30425 45.13325 71.32875C36.523 71.35325 27.81575 73.1775 17.155925 76.73675C16.4557 74.701 16.090425 72.56325 16.0746 70.4085V52.69425C16.073825 51.6575 16.1304 50.62175 16.24405 49.59125H73.73175C73.8385 50.6195 73.89225 51.6525 73.893 52.68625V70.4085C73.89225 72.562 73.53775 74.70025 72.844 76.73675Z" fill="#1D1D1B"></path><path fill-rule="evenodd" clip-rule="evenodd" d="M19.939925 61.65325L18.051625 61.89775V52.28725H19.964125V61.65325H19.939925ZM19.8915 73.0065L18.051625 73.57675V64.52825L19.859225 64.17C20.56935 65.23675 21.287525 66.263 22.005725 67.281C22.71585 65.96175 23.43405 64.67475 24.152225 63.40425C24.749375 63.2985 25.3545 63.20875 25.95175 63.1275V71.1415C25.3545 71.29625 24.749375 71.451 24.152225 71.63025V66.44225C23.627725 67.387 23.1032 68.35625 22.538325 69.3335L21.39245 69.62675C20.867925 68.90175 20.3434 68.16875 19.818875 67.4115V72.966L19.8915 73.0065ZM32.73825 62.2885V63.779C31.29375 63.95 29.8575 64.15375 28.421 64.349V65.864L32.133 65.302L31.77 66.8575L28.44525 67.42775V68.58425C28.443 68.62175 28.44825 68.65925 28.4605 68.6945C28.47275 68.73 28.49175 68.76275 28.5165 68.79075C28.54125 68.81875 28.57125 68.8415 28.6045 68.85775C28.638 68.874 28.6745 68.8835 28.7115 68.8855C28.7675 68.89775 28.82525 68.89775 28.881 68.8855C30.17225 68.633 31.46325 68.38875 32.7625 68.177V69.65925C31.46325 69.88725 30.156 70.156 28.85675 70.47375C28.5775 70.553 28.28425 70.57075 27.9975 70.52575C27.71075 70.48075 27.43675 70.37425 27.1945 70.213C27.00075 70.076 26.8455 69.89075 26.74375 69.67525C26.642 69.45975 26.597 69.2215 26.6135 68.98325V63.03775C28.655 62.75275 30.69675 62.5085 32.73825 62.2885ZM36.40175 61.971C37.8545 61.87325 39.29875 61.8 40.75125 61.743V67.3545L41.48575 67.3055V69.46375L39.67 69.60225V68.83675C38.153 68.95875 36.62775 69.138 35.11075 69.31725V70.13175L33.31125 70.44125V68.10375C35.18325 67.82675 37.0635 67.615 38.96 67.43575V63.28225C38.153 63.331 37.2815 63.39625 36.44225 63.46125C36.388 63.4545 36.33325 63.45925 36.281 63.47525C36.22875 63.49125 36.1805 63.51825 36.1395 63.55425C36.09825 63.5905 36.06525 63.635 36.04225 63.685C36.01925 63.73475 36.00725 63.789 36.0065 63.84425V66.8575C35.40125 67.0285 34.796 67.20775 34.19875 67.40325V63.95825C34.20475 63.678 34.27575 63.403 34.406 63.1555C34.5365 62.90775 34.7225 62.69475 34.94925 62.533C35.37075 62.199 35.88325 62.003 36.418 61.971H36.40175ZM46.48075 68.58425C45.004 68.58425 43.52725 68.58425 42.0505 68.633V61.65325C43.52725 61.65325 44.996 61.6045 46.48075 61.65325C47.08925 61.64275 47.6805 61.857 48.143 62.256C48.31775 62.3955 48.45975 62.57225 48.559 62.7735C48.658 62.97475 48.7115 63.19575 48.716 63.42075V64.15375C48.70475 64.5295 48.5485 64.886 48.28025 65.14725C48.5535 65.425 48.70975 65.7985 48.716 66.18975V66.9145C48.70775 67.173 48.6325 67.42475 48.498 67.64475C48.36375 67.86475 48.1745 68.0455 47.9495 68.16875C47.5105 68.44725 46.99875 68.58625 46.48075 68.568V68.58425ZM44.80225 64.406C45.343 64.406 45.89975 64.406 46.41625 64.406C46.49775 64.41625 46.5805 64.40075 46.65275 64.36125C46.725 64.32175 46.7835 64.26075 46.81975 64.18625C46.83075 64.14625 46.83075 64.104 46.81975 64.064V63.38C46.81975 63.23325 46.731 63.1275 46.5535 63.0705C46.50025 63.0455 46.4425 63.0315 46.384 63.02975C45.5205 63.02975 44.657 63.02975 43.7935 63.02975V67.1915C44.657 67.1915 45.5205 67.1915 46.384 67.1915C46.46275 67.20175 46.54275 67.18875 46.61425 67.154C46.686 67.11925 46.746 67.0645 46.7875 66.996C46.79825 66.95325 46.79825 66.9085 46.7875 66.86575V66.1735C46.7875 66.01875 46.6905 65.91275 46.505 65.85575H46.35175C45.67375 65.85575 44.988 65.85575 44.31 65.85575C44.43925 65.3915 44.56825 64.91925 44.7055 64.44675L44.80225 64.406ZM55.3815 62.0605V63.5265C53.937 63.40425 52.50075 63.2985 51.06425 63.209V64.58525C52.307 64.66675 53.54175 64.7725 54.78425 64.8785C54.64725 65.35075 54.518 65.82325 54.389 66.2955C53.2835 66.18975 52.178 66.07575 51.06425 66.0025V67.045C51.06425 67.19975 51.161 67.3055 51.3305 67.387C51.38675 67.3935 51.44375 67.3935 51.5 67.387C52.79925 67.50925 54.08225 67.6475 55.3815 67.79425V69.244C54.08225 69.081 52.783 68.91 51.484 68.796C50.87625 68.778 50.29175 68.5575 49.8215 68.16875C49.6495 68.0225 49.51075 67.84075 49.41475 67.6355C49.31875 67.43025 49.2675 67.20675 49.26475 66.97975V61.7185C51.29825 61.8 53.34 61.922 55.3815 62.0605ZM59.05325 62.427C60.4975 62.60625 61.95025 62.77725 63.3945 62.997V69.309L64.129 69.48825V71.9315L62.32125 71.443V70.61225C60.799 70.27 59.279 69.95525 57.762 69.6675V70.48175L55.97875 70.17225V67.9245C57.85875 68.2015 59.739 68.53525 61.62725 68.90175V64.30025L59.10975 63.94175C59.03075 63.9225 58.94775 63.9285 58.8725 63.959C58.79725 63.98975 58.7335 64.0435 58.69 64.113C58.687 64.15625 58.687 64.19975 58.69 64.24325V67.3545L56.8825 67.4195V64.01525C56.877 63.75625 56.93975 63.50075 57.06475 63.2745C57.1895 63.0485 57.37175 62.86 57.5925 62.72825C58.03425 62.47175 58.551 62.3795 59.05325 62.46775V62.427ZM66.469 63.48575C65.864 63.38 65.25875 63.274 64.6615 63.1845V71.23125C65.25875 71.386 65.864 71.57325 66.469 71.7525C67.0825 71.0195 67.69575 70.27 68.301 69.49625C68.906 68.72275 69.5275 67.93275 70.14075 67.12625V72.9415L71.9565 73.5685V64.52825L70.14075 64.17C69.5275 64.98425 68.91425 65.79875 68.301 66.61325C67.6875 67.42775 67.1065 68.16875 66.469 68.98325V63.48575ZM23.4986 55.8055V52.28725H25.42725V60.83875L23.4986 61.09125V57.581C22.457625 57.67075 21.41665 57.752 20.38375 57.84975C20.520925 57.2145 20.666175 56.57925 20.80335 55.95225L23.4986 55.7975V55.8055ZM32.577 52.29525V53.8835L28.0015 53.973V55.602L31.9395 55.44725C31.80225 55.98475 31.665 56.52225 31.51975 57.076L28.0015 57.27975V58.51775C28.0015 58.6 28.02975 58.6795 28.081 58.74325C28.1325 58.807 28.204 58.851 28.28375 58.868C28.3425 58.8795 28.40275 58.8795 28.4615 58.868C29.83325 58.77025 31.205 58.66425 32.577 58.57475V60.1465C31.197 60.2605 29.817 60.38275 28.44525 60.52125C28.13775 60.5645 27.82475 60.54275 27.526 60.45725C27.22725 60.37175 26.9495 60.22425 26.71025 60.0245C26.51825 59.85775 26.36575 59.64975 26.26375 59.416C26.16175 59.182 26.113 58.928 26.12125 58.6725V52.29525H32.577ZM37.88675 59.8045C36.32125 59.886 34.75575 59.9755 33.19825 60.0895V52.28725H37.88675C38.53175 52.2625 39.1625 52.4835 39.654 52.90625C39.836 53.055 39.98375 53.24225 40.08675 53.45475C40.19 53.667 40.246 53.8995 40.251 54.136V54.9505C40.24425 55.34175 40.09825 55.71775 39.8395 56.00925C39.98575 56.1485 40.10275 56.3165 40.183 56.5025C40.2635 56.68875 40.30575 56.88925 40.3075 57.0925V57.90675C40.3005 58.19 40.22275 58.46675 40.08175 58.7115C39.94075 58.95625 39.74075 59.1615 39.5005 59.30775C39.0405 59.63325 38.49675 59.81725 37.935 59.837L37.88675 59.8045ZM36.11125 55.325H37.8545C37.94375 55.33225 38.03325 55.31225 38.111 55.267C38.18875 55.222 38.25125 55.15425 38.29025 55.0725C38.302 55.02725 38.302 54.9795 38.29025 54.93425V54.20125C38.291 54.1205 38.26275 54.04225 38.211 53.98075C38.159 53.91925 38.08675 53.879 38.00775 53.86725C37.9465 53.8555 37.8835 53.8555 37.822 53.86725H35.0785V58.3955L37.822 58.2815C37.90875 58.2835 37.9945 58.263 38.071 58.2215C38.14725 58.18025 38.21175 58.1195 38.25775 58.04525C38.26775 57.997 38.26775 57.947 38.25775 57.89875V57.1495C38.25775 56.9785 38.153 56.8725 37.95925 56.82375C37.903 56.81625 37.846 56.81625 37.78975 56.82375L35.62725 56.897C35.76425 56.37575 35.9095 55.8625 36.04675 55.34125L36.11125 55.325ZM42.88975 58.06975C42.9895 58.13275 43.10325 58.16925 43.22075 58.1755C44.75375 58.1755 46.29525 58.1755 47.8365 58.1755V59.64975C46.287 59.64975 44.73775 59.64975 43.18825 59.64975C42.6095 59.65975 42.043 59.47975 41.5745 59.13675C41.36675 58.9935 41.19525 58.80325 41.07325 58.58125C40.9515 58.35925 40.88275 58.1115 40.8725 57.858V54.12775C40.88025 53.8715 40.94775 53.6205 41.06975 53.3955C41.19175 53.1705 41.36475 52.97775 41.5745 52.83275C42.0395 52.48 42.6065 52.29125 43.18825 52.29525H47.909C47.772 52.79225 47.62675 53.28075 47.4895 53.77775C46.08525 53.77775 44.68925 53.77775 43.29325 53.77775C43.17425 53.774 43.0575 53.81125 42.9625 53.8835C42.921 53.91125 42.88675 53.94875 42.863 53.99275C42.839 54.03675 42.826 54.08575 42.82525 54.136V57.809C42.8295 57.85975 42.84375 57.90875 42.86725 57.95375C42.891 57.9985 42.92325 58.038 42.9625 58.06975H42.88975ZM56.3175 52.29525C55.22825 53.574 54.155 54.82825 53.08975 56.06625C54.171 57.36125 55.24425 58.6725 56.3175 60.0245L53.89675 59.87775C53.6385 59.601 53.08975 58.9575 52.3555 57.95575C51.94375 57.4345 51.621 57.0355 51.36275 56.76675H50.3865V59.73125L48.46575 59.67425V52.34425H50.3865V55.30075H51.371C51.62375 55.0455 52.13225 54.44275 52.896 53.4925C53.2995 52.9875 53.6385 52.59675 53.89675 52.328L56.3175 52.29525ZM59.021 52.29525H57.1325V60.0815L59.05325 60.23625C59.69875 59.42175 60.35225 58.60725 60.998 57.72775C61.6435 56.848 62.29725 55.993 62.95075 55.10525V60.627L64.85525 60.83875V52.29525H62.95075C62.29725 53.2075 61.6435 54.1115 60.998 54.99125C60.35225 55.87075 59.69875 56.71775 59.05325 57.581V52.29525H59.021ZM72.013 52.29525V54.24175L67.4375 54.1035V55.84625L71.3755 56.0825C71.23825 56.71775 71.101 57.33675 70.95575 57.96375L67.4375 57.64625V58.97375C67.43575 59.066 67.46175 59.15675 67.51225 59.234C67.5625 59.311 67.635 59.37075 67.72 59.4055C67.77525 59.4365 67.83525 59.4585 67.8975 59.4705C69.26925 59.62525 70.641 59.8045 72.013 59.9755V61.89775C70.633 61.68575 69.253 61.45775 67.88125 61.26225C67.1925 61.17525 66.56125 60.829 66.114 60.29325C65.736 59.88675 65.52275 59.352 65.517 58.7945V52.279L72.013 52.29525Z" fill="white"></path></g><defs><clipPath id="clip0_392_28"><rect width="22.5" height="30" fill="white" transform="scale(4)"></rect></clipPath></defs></svg> 