<?xml version="1.0" encoding="utf-8"?>
<!-- Generator: Adobe Illustrator 18.0.0, SVG Export Plug-In . SVG Version: 6.00 Build 0)  -->
<!DOCTYPE svg PUBLIC "-//W3C//DTD SVG 1.1//EN" "http://www.w3.org/Graphics/SVG/1.1/DTD/svg11.dtd">
<svg xmlns="http://www.w3.org/2000/svg" xmlns:xlink="http://www.w3.org/1999/xlink" version="1.1" id="Слой_1" x="0px" y="0px" viewBox="147.4 0 767.6 768" enable-background="new 147.4 0 767.6 768" xml:space="preserve">
<path fill="#000000" stroke="" stroke-width="2" stroke-linecap="round" stroke-linejoin="round" stroke-miterlimit="10" d="  M909,437.3c0.3-0.7-0.2-1.4-0.2-2.1V137.1c0-3.2-2.4-5.8-6.1-5.8s-6.1,2.6-6.1,5.8V149c-113.1,63.2-222.8,84-294.4,90.3  c-64.5,5.6-110.9,0.8-126.2-1.2v-11.5c0-5.7-5-10.3-10.7-10.3s-10.7,4.6-10.7,10.3v529.2c0,1.1,0.9,2.2,1.3,3.2  c-6.2,0.9-10,2.7-10,4.7c0,3,9.3,5.4,20.6,5.4c11.3,0,20.5-2.4,20.5-5.4c0-2.1-4.7-3.9-11.1-4.8c0.3-1,0.2-2.1,0.2-3.2V481.4  c10.2-8.7,32.7-28.9,46.4-37.8c5.9-2.2,97.8-37,189.4-72c126.1-48.2,169.5-65.7,184.8-72.5v136.1c0,0.8,0.6,1.5,0.8,2.2  c-3.2,0.4-5.1,1-5.1,1.8c0,1.2,5.2,2.1,11.5,2.1c6.3,0,11.1-1,11.1-2.1C915,438.4,912.4,437.7,909,437.3z M516.6,440.2  c-0.1,0.3-0.8,0.6-0.7,1c-12.4,8.7-29.7,23.6-39.9,32.5V243.8c5.1,0.7,13.4,1.6,24,2.3C504.4,265.9,533.4,398,516.6,440.2z   M522.3,437.7c14.1-46.5-11.9-167.6-17.2-191.3c10.6,0.7,23.5,1.2,38.2,1.2c17.5,0,37.7-0.7,60-2.6c70.4-6.1,176.2-26.1,287.8-86  c-2.8,21.3-14.1,116.2,0.3,136.8C838.7,318.1,615.4,402.7,522.3,437.7z M896.6,292.9c0,0.3-0.8,0.7-1.7,1c0,0,0.3-0.1,0.3-0.1  c-13.1-15.5-4.5-103.7,0.2-137.5c0.5-0.3,1.2-0.6,1.2-0.8V292.9z M327.9,29.8c0-13.1,10.6-23.7,23.7-23.7  c13.1,0,23.7,10.6,23.7,23.7s-10.6,23.7-23.7,23.7C338.5,53.4,327.9,42.9,327.9,29.8z M427,248.2c-2.9-1.3-16.6,4-16.6,4  c-4.2,2.1-18.4,1.6-18.4,1.6c-20.5-3.2-32.1,0-32.1,0c-5.8,1.3-11.3,1.8-11.3,1.8c0.8-7.6-14.5-5-14.5-5l-23.4,2.4  c-15.3,0.3-26.4,6.9-26.4,6.9c-0.6-0.7-12,2.3-12,2.3c-2.1-3.7,4.1-9.5,4.1-9.5c5-4.6,0-6.7,0-6.7c-2.5-1.1-1.5-3-1.5-3  c1.1-2.4-1.7-2.1-1.7-2.1c-0.8-1,0-2,0-2c1.9-2.3,0-3.5,0-3.5c-1.1,0-2-1.3-2-1.3c2.9-3.5-0.4-4.9-0.4-4.9l-6.4-1v-3.5  c-4.1-4.5-10.2-5.6-10.2-5.6v-1.8c-19.4-6.4-28.6,14.8-28.6,14.8c-3.9,23.1,17.4,34.9,17.4,34.9v2.7c-4.1-1.3-19.2,3.5-19.2,3.5  c-17.7-8.7-25.4-4.5-25.4-4.5l-5.7-3.5c5.1-3.9,10-28,10-28c5.1-18,9.7-21.2,9.7-21.2c5.5-1.9,8.2-14.2,8.2-14.2  c1.9-2.9,2.3-6.5,2.3-6.5c-3.9-2.9-5.6,1.8-5.6,1.8l0.7-5.2c2.1-0.8,4.2-5.3,4.2-5.3c1.8-3.7-3.7-3.2-3.7-3.2  c0.3-4.2-3.2-2.4-3.2-2.4c-0.8-4.5-7.1,1.3-7.1,1.3c-1.1-5.3-8.2,7.1-8.2,7.1c-4,4.7-3.2,19.2-3.2,19.2c-0.8,4.2-3.7,10.5-3.7,10.5  c-14.2,19.8-20.5,44.3-20.5,44.3c-2.9,6.8,2.1,9.7,2.1,9.7c1.3,5,12.1,14.2,12.1,14.2c-0.8,7.6,11.6,10.8,11.6,10.8l18.7,7.9  c3.2,5,16.6,12.9,16.6,12.9c6.3,11.6,20.3,29.2,20.3,29.2c-0.3,4,1.8,14.2,1.8,14.2c-1.8,2.9-1.6,11.3-1.6,11.3  c-1.1,5.5,2.9,11.3,2.9,11.3c-2.9,12.6,0.5,35,0.5,35c-2.1,1.1-2.4,7.4-2.4,7.4c-2.9,4.2-0.5,10.8-0.5,10.8l-3.2,25.8l-1.6-0.5  c-17.6-6.3-34.8,5-34.8,5l-22.4,10.3c0-1.1-6.8-0.3-6.8-0.3c-1.3-5.5-6.8-6.8-6.8-6.8l-1.1-2.4c-5.5-6.6-16.9,11.9-16.9,11.9  c0.8,5.5-2.1,9.2-2.1,9.2c-5,4-9.7,14-9.7,14c-6.1,22.1,4,25,4,25c6.8,2.9,10.8-7.4,10.8-7.4c8.7-12.6,16.1-14,16.1-14  c12.1-1.1,8.4-5.8,8.4-5.8c1.6,0,3.9-2.1,3.9-2.1c3.7-3.7,16.9-5.5,16.9-5.5c10-0.8,26.6-2.6,26.6-2.6l5.2-0.4l-1.5,0.9  c-4.2,4-2.4,12.9-2.4,12.9c2.1,2.9,0.5,9.7,0.5,9.7c-2.6,3.4-3.7,11.6-3.7,11.6c0.5,21.6,9.2,20.5,9.2,20.5c6.1-0.3,6.8-10,6.8-10  c2.4-12.1,14-19,14-19c6.8-3.4,0.3-8.4,0.3-8.4c1.8-0.8,2.9-4.7,2.9-4.7c1.6-4.2,15.8-10.5,15.8-10.5c6.3-2.9,17.1-10,17.1-10  c7.4-5.3,17.6-9.7,17.6-9.7c6.1-2.6,6.8-13.4,6.8-13.4c5.8-7.6,7.9-41.4,7.9-41.4c4.2-22.4-4.2-55.3-4.2-55.3  c7.1-3.4,19.3-15.7,19.3-15.7c-1.8-7.9-15.4-16.7-15.4-16.7c1.3-4.2-8.2-17.1-8.2-17.1c1.3-10.5-9.2-28.7-9.2-28.7  c-3.7-6.8,9.7-8.4,9.7-8.4c7.4,0,16.6-4.6,16.6-4.6c5.8,0.9,17.1-0.5,17.1-0.5c13.4,1.9,24.5-1.9,24.5-1.9  c7.4-2.6,24.5-7.6,24.5-7.6c7.6,1.1,14.2-3.2,14.2-3.2c1.6-0.8,5.3-1.8,5.3-1.8l1.3,4c-0.5,6.8,2.3,7.4,2.3,7.4  c2.4,0.5,1.4-0.3,1.4-0.3c4.2,2.9,2.9-11.3,2.9-11.3C434.4,253.2,427,248.2,427,248.2z M286,465.3l4-9.8c1.1,0,6.1-0.5,6.1-0.5  l0.3,6.3C293,460.2,289.3,462.3,286,465.3z M879.5,419.9c6.9-14.7-6.1-20.5-6.1-20.5s-18-7.8-20.6-1.9c0,0-8.2,3.9-10.5,7.9  c0,0-1.3,1.6,0,3.8c0,0-1.5,2.6-5.2,4.4c0,0-2.6,1.8,0,3.8l-1.3,1.5c-7.9-6.3-15.5-6.7-15.5-6.7l-3.4-2.2c1.1-3.2,5.5-26.9,5.5-26.9  c5.8-14.2,11.1-15,11.1-15c1.1-0.8,12.9-7.9,12.9-7.9c4-2.4,7.2-6.1,7.2-6.1c3.7-5.3-1.1-2.5-1.1-2.5c-4.2,3.4-9.5,4.5-9.5,4.5  c6.1-4,7.4-10.3,7.4-10.3c-1.3-1.8-4.5,2.4-4.5,2.4c-2.9,2.6-8.4,5-8.4,5c3.2-2.1,5.3-9.7,5.3-9.7c1.1-5.5-4-0.3-4-0.3  c-2.1-3.7-5.5,4-5.5,4c-1,1.9-3.1,3.6-5.3,5c1.7-2.6,2.9-5,2.9-5s1.1-2.9,0.3-3.9c0,0-2.3-0.2-3.9,4.1l-4.3,5.4l1.3-6.1  c0,0,1-7.9-1.6-8.7c0,0-1.8-0.8-2.1,6.7c0,0-1.8,5.1-3.1,5.7c0,0,1.3-11-1.6-13.6c0,0-2.3,0.2-1.5,5.4c0,0-1.5-5.2-3,2.5  c0,0-3.1,6.2-7.9,10.3c0,0-6.7,5.2-5.7,16.1c0,0-3.1,16.5-4.4,23.8c0,0-4.1,18.2-2.3,27.4c0,0,0.2,6.7,4.1,7.5l4.8,3.3  c0,0,9.7,8,11.6,8.4c0,0-0.2,14.1,4.6,13.8c0,0,5.4,1.3,7.9,3.1c0,0-7.2,38.3-4.5,56.5c0,0,3.5,34.8,3.3,38.3l4,1.1l0.5,1.6  c0.3,1.5-7.5,13.9-7.5,13.9c-7.4,7-13.1,30.8-13.1,30.8c-1.3,1.6,0.3,3.1,0.3,3.1l-2.9,11.3c-2.3,0.3-5.2,12.1-5.2,12.1  c-2.6,7,5.6,21.5,5.6,21.5c1,4.9,5.7,49.6,5.7,49.6c-2.6,1,0.1,18.9,0.1,18.9c-0.1-0.1-0.2-0.1-0.4-0.2c-3.6-1.2-5.2,7.5-5.2,7.5  c-1,3.1-6.8,9-6.8,9c-10.7,0-12.1,3.6-12.1,3.6c-2.3,1.9-1.3,4-1.3,4c7.8,7.2,31.3,1.6,31.3,1.6c5-3.3,8.6-2.7,8.6-2.7  c4-0.4,11.3-4.6,11.3-4.6c0.6-1.6-0.6-4.3-0.6-4.3c0.2-2.7-2.9-7.5-2.9-7.5c-0.2-6.1-4.2-6.4-4.2-6.4s0-17.6-0.8-18.4l-1.6-1.6  c-0.2-12.3,2-30.8,2-30.8l11.8,25.4c5.6,13.3,8,22.9,8,22.9c-1.3,3.1,3.6,14.9,3.6,14.9c-0.1-0.1-0.2-0.1-0.4-0.2  c-3.7-1.3-5.2,8.2-5.2,8.2c-1,3.4-6.9,9.8-6.9,9.8c-10.8,0-12.3,3.9-12.3,3.9c-2.3,2.1-1.3,4.4-1.3,4.4c7.9,7.9,31.6,1.8,31.6,1.8  c5.1-3.6,8.7-2.9,8.7-2.9c4.1-0.5,11.5-5.1,11.5-5.1c0.7-1.8-0.7-4.8-0.7-4.8c0.2-2.9-2.9-8.2-2.9-8.2c-0.2-6.7-4.3-7-4.3-7  c-1.1-1.5-3.4-14.1-3.4-14.1c-1.5-5.4-2.1-4.3-2.1-4.3l-5.2-29.7c-2.5-20.3-7.9-28.3-7.9-28.3c-3.1-4.3-2-15.4-2-15.4  c0.5-5.9,7.9-15.6,7.9-15.6c1.8,0.3,13.4-1.1,13.4-1.1c-1.1-3.8,2-13.1,2-13.1c4.3-10.8,5.8-46.5,5.8-46.5h2.1  c2.1-4.1-0.8-18.1-0.8-18.1c1.6-3.8-6.1-17.6-6.1-17.6c-3.1-4.3-1-13.3-1-13.3c5.4-12.5,6.2-39.8,6.2-39.8  c2.9-9.3,0.3-22.5,0.3-22.5c-0.7-11-9.8-14.9-9.8-14.9l-0.2-3.3l2.1-2C875.6,427.7,879.5,419.9,879.5,419.9z M816.1,368.5l-8.7,14.5  c0.8-14.5,4-15.5,4-15.5l4.9-4.1C815.8,366.2,816.1,368.5,816.1,368.5z"/>
</svg>
